<?xml version="1.0" encoding="us-ascii" standalone="no"?><svg xmlns="http://www.w3.org/2000/svg" xmlns:xlink="http://www.w3.org/1999/xlink" contentStyleType="text/css" height="1021px" preserveAspectRatio="none" style="width:923px;height:1021px;background:#FFFFFF;" version="1.1" viewBox="0 0 923 1021" width="923px" zoomAndPan="magnify"><defs/><g><!--class Vector--><g id="elem_Vector"><rect codeLine="2" fill="#F1F1F1" height="259.3125" id="Vector" rx="2.5" ry="2.5" style="stroke:#181818;stroke-width:0.5;" width="276" x="32" y="256"/><ellipse cx="145.25" cy="272" fill="#ADD1B2" rx="11" ry="11" style="stroke:#181818;stroke-width:1.0;"/><path d="M148.0156,267.875 Q148.1719,267.6563 148.3594,267.5469 Q148.5469,267.4375 148.7656,267.4375 Q149.1406,267.4375 149.375,267.6953 Q149.6094,267.9531 149.6094,268.5625 L149.6094,270.0156 Q149.6094,270.625 149.375,270.8906 Q149.1406,271.1563 148.7656,271.1563 Q148.4219,271.1563 148.2188,270.9531 Q148.0156,270.7656 147.9063,270.25 Q147.8594,269.8906 147.6719,269.7031 Q147.3438,269.3281 146.7344,269.1094 Q146.125,268.8906 145.5,268.8906 Q144.7344,268.8906 144.1016,269.2188 Q143.4688,269.5469 142.9766,270.2969 Q142.4844,271.0469 142.4844,272.0781 L142.4844,273.1719 Q142.4844,274.4063 143.375,275.2266 Q144.2656,276.0469 145.8594,276.0469 Q146.7969,276.0469 147.4531,275.7969 Q147.8438,275.6406 148.2656,275.2031 Q148.5313,274.9375 148.6797,274.8594 Q148.8281,274.7813 149.0313,274.7813 Q149.3594,274.7813 149.6172,275.0391 Q149.875,275.2969 149.875,275.6406 Q149.875,275.9844 149.5313,276.3906 Q149.0313,276.9688 148.2344,277.2969 Q147.1563,277.75 145.8594,277.75 Q144.3438,277.75 143.1406,277.125 Q142.1563,276.625 141.4688,275.5547 Q140.7813,274.4844 140.7813,273.2031 L140.7813,272.0469 Q140.7813,270.7188 141.3984,269.5703 Q142.0156,268.4219 143.1094,267.8047 Q144.2031,267.1875 145.4375,267.1875 Q146.1719,267.1875 146.8203,267.3516 Q147.4688,267.5156 148.0156,267.875 Z " fill="#000000"/><text fill="#000000" font-family="sans-serif" font-size="14" lengthAdjust="spacing" textLength="41" x="165.75" y="277.7285">Vector</text><line style="stroke:#181818;stroke-width:0.5;" x1="33" x2="307" y1="288" y2="288"/><text fill="#000000" font-family="sans-serif" font-size="14" lengthAdjust="spacing" textLength="45" x="38" y="306.5332">x : float</text><text fill="#000000" font-family="sans-serif" font-size="14" lengthAdjust="spacing" textLength="46" x="38" y="324.1426">y : float</text><line style="stroke:#181818;stroke-width:0.5;" x1="33" x2="307" y1="331.2188" y2="331.2188"/><ellipse cx="43" cy="345.5234" fill="#84BE84" rx="3" ry="3" style="stroke:#038048;stroke-width:1.0;"/><text fill="#000000" font-family="sans-serif" font-size="14" lengthAdjust="spacing" textLength="153" x="52" y="349.752">Dot(other : Vec2) : Vec2</text><ellipse cx="43" cy="363.1328" fill="#84BE84" rx="3" ry="3" style="stroke:#038048;stroke-width:1.0;"/><text fill="#000000" font-family="sans-serif" font-size="14" lengthAdjust="spacing" textLength="76" x="52" y="367.3613">Mag() : float</text><ellipse cx="43" cy="380.7422" fill="#84BE84" rx="3" ry="3" style="stroke:#038048;stroke-width:1.0;"/><text fill="#000000" font-family="sans-serif" font-size="14" lengthAdjust="spacing" textLength="93" x="52" y="384.9707">SqMag() : float</text><ellipse cx="43" cy="398.3516" fill="#84BE84" rx="3" ry="3" style="stroke:#038048;stroke-width:1.0;"/><text fill="#000000" font-family="sans-serif" font-size="14" lengthAdjust="spacing" textLength="84" x="52" y="402.5801">Perp() : Vec2</text><ellipse cx="43" cy="415.9609" fill="#84BE84" rx="3" ry="3" style="stroke:#038048;stroke-width:1.0;"/><text fill="#000000" font-family="sans-serif" font-size="14" lengthAdjust="spacing" textLength="115" x="52" y="420.1895">Normalize() : Vec2</text><ellipse cx="43" cy="433.5703" fill="#84BE84" rx="3" ry="3" style="stroke:#038048;stroke-width:1.0;"/><text fill="#000000" font-family="sans-serif" font-size="14" lengthAdjust="spacing" textLength="123" x="52" y="437.7988">Normalized() : Vec2</text><ellipse cx="43" cy="451.1797" fill="#84BE84" rx="3" ry="3" style="stroke:#038048;stroke-width:1.0;"/><text fill="#000000" font-family="sans-serif" font-size="14" lengthAdjust="spacing" textLength="172" x="52" y="455.4082">AngleBetween(other) : float</text><ellipse cx="43" cy="468.7891" fill="#84BE84" rx="3" ry="3" style="stroke:#038048;stroke-width:1.0;"/><text fill="#000000" font-family="sans-serif" font-size="14" lengthAdjust="spacing" textLength="166" x="52" y="473.0176">ProjectedOn(other) : Vec2</text><ellipse cx="43" cy="486.3984" fill="#84BE84" rx="3" ry="3" style="stroke:#038048;stroke-width:1.0;"/><text fill="#000000" font-family="sans-serif" font-size="14" lengthAdjust="spacing" textLength="131" x="52" y="490.627">Rotate(angle) : Vec2</text><ellipse cx="43" cy="504.0078" fill="#84BE84" rx="3" ry="3" style="stroke:#038048;stroke-width:1.0;"/><text fill="#000000" font-family="sans-serif" font-size="14" lengthAdjust="spacing" textLength="250" x="52" y="508.2363">Slerp(p : Vec2, q : Vec2, t : float) : Vec2</text></g><!--class World--><g id="elem_World"><rect codeLine="16" fill="#F1F1F1" height="171.2656" id="World" rx="2.5" ry="2.5" style="stroke:#181818;stroke-width:0.5;" width="262" x="7" y="7"/><ellipse cx="115.25" cy="23" fill="#ADD1B2" rx="11" ry="11" style="stroke:#181818;stroke-width:1.0;"/><path d="M118.0156,18.875 Q118.1719,18.6563 118.3594,18.5469 Q118.5469,18.4375 118.7656,18.4375 Q119.1406,18.4375 119.375,18.6953 Q119.6094,18.9531 119.6094,19.5625 L119.6094,21.0156 Q119.6094,21.625 119.375,21.8906 Q119.1406,22.1563 118.7656,22.1563 Q118.4219,22.1563 118.2188,21.9531 Q118.0156,21.7656 117.9063,21.25 Q117.8594,20.8906 117.6719,20.7031 Q117.3438,20.3281 116.7344,20.1094 Q116.125,19.8906 115.5,19.8906 Q114.7344,19.8906 114.1016,20.2188 Q113.4688,20.5469 112.9766,21.2969 Q112.4844,22.0469 112.4844,23.0781 L112.4844,24.1719 Q112.4844,25.4063 113.375,26.2266 Q114.2656,27.0469 115.8594,27.0469 Q116.7969,27.0469 117.4531,26.7969 Q117.8438,26.6406 118.2656,26.2031 Q118.5313,25.9375 118.6797,25.8594 Q118.8281,25.7813 119.0313,25.7813 Q119.3594,25.7813 119.6172,26.0391 Q119.875,26.2969 119.875,26.6406 Q119.875,26.9844 119.5313,27.3906 Q119.0313,27.9688 118.2344,28.2969 Q117.1563,28.75 115.8594,28.75 Q114.3438,28.75 113.1406,28.125 Q112.1563,27.625 111.4688,26.5547 Q110.7813,25.4844 110.7813,24.2031 L110.7813,23.0469 Q110.7813,21.7188 111.3984,20.5703 Q112.0156,19.4219 113.1094,18.8047 Q114.2031,18.1875 115.4375,18.1875 Q116.1719,18.1875 116.8203,18.3516 Q117.4688,18.5156 118.0156,18.875 Z " fill="#000000"/><text fill="#000000" font-family="sans-serif" font-size="14" lengthAdjust="spacing" textLength="37" x="135.75" y="28.7285">World</text><line style="stroke:#181818;stroke-width:0.5;" x1="8" x2="268" y1="39" y2="39"/><rect fill="none" height="6" style="stroke:#C82930;stroke-width:1.0;" width="6" x="15" y="50.3047"/><text fill="#000000" font-family="sans-serif" font-size="14" lengthAdjust="spacing" textLength="79" x="27" y="57.5332">scenes : dict</text><rect fill="none" height="6" style="stroke:#C82930;stroke-width:1.0;" width="6" x="15" y="67.9141"/><text fill="#000000" font-family="sans-serif" font-size="14" lengthAdjust="spacing" textLength="129" x="27" y="75.1426">activeScene : Scene</text><line style="stroke:#181818;stroke-width:0.5;" x1="8" x2="268" y1="82.2188" y2="82.2188"/><ellipse cx="18" cy="96.5234" fill="#84BE84" rx="3" ry="3" style="stroke:#038048;stroke-width:1.0;"/><text fill="#000000" font-family="sans-serif" font-size="14" lengthAdjust="spacing" textLength="234" x="27" y="100.752">AddScene(sceneName, scene) : bool</text><ellipse cx="18" cy="114.1328" fill="#84BE84" rx="3" ry="3" style="stroke:#038048;stroke-width:1.0;"/><text fill="#000000" font-family="sans-serif" font-size="14" lengthAdjust="spacing" textLength="215" x="27" y="118.3613">RemoveScene(sceneName) : bool</text><ellipse cx="18" cy="131.7422" fill="#84BE84" rx="3" ry="3" style="stroke:#038048;stroke-width:1.0;"/><text fill="#000000" font-family="sans-serif" font-size="14" lengthAdjust="spacing" textLength="222" x="27" y="135.9707">SetActiveScene(sceneName) : bool</text><ellipse cx="18" cy="149.3516" fill="#84BE84" rx="3" ry="3" style="stroke:#038048;stroke-width:1.0;"/><text fill="#000000" font-family="sans-serif" font-size="14" lengthAdjust="spacing" textLength="118" x="27" y="153.5801">StartActiveScene()</text><ellipse cx="18" cy="166.9609" fill="#84BE84" rx="3" ry="3" style="stroke:#038048;stroke-width:1.0;"/><text fill="#000000" font-family="sans-serif" font-size="14" lengthAdjust="spacing" textLength="236" x="27" y="171.1895">UpdateActiveScene(deltaTime=None)</text></g><!--class Scene--><g id="elem_Scene"><rect codeLine="25" fill="#F1F1F1" height="171.2656" id="Scene" rx="2.5" ry="2.5" style="stroke:#181818;stroke-width:0.5;" width="307" x="367.5" y="7"/><ellipse cx="496.75" cy="23" fill="#ADD1B2" rx="11" ry="11" style="stroke:#181818;stroke-width:1.0;"/><path d="M499.5156,18.875 Q499.6719,18.6563 499.8594,18.5469 Q500.0469,18.4375 500.2656,18.4375 Q500.6406,18.4375 500.875,18.6953 Q501.1094,18.9531 501.1094,19.5625 L501.1094,21.0156 Q501.1094,21.625 500.875,21.8906 Q500.6406,22.1563 500.2656,22.1563 Q499.9219,22.1563 499.7188,21.9531 Q499.5156,21.7656 499.4063,21.25 Q499.3594,20.8906 499.1719,20.7031 Q498.8438,20.3281 498.2344,20.1094 Q497.625,19.8906 497,19.8906 Q496.2344,19.8906 495.6016,20.2188 Q494.9688,20.5469 494.4766,21.2969 Q493.9844,22.0469 493.9844,23.0781 L493.9844,24.1719 Q493.9844,25.4063 494.875,26.2266 Q495.7656,27.0469 497.3594,27.0469 Q498.2969,27.0469 498.9531,26.7969 Q499.3438,26.6406 499.7656,26.2031 Q500.0313,25.9375 500.1797,25.8594 Q500.3281,25.7813 500.5313,25.7813 Q500.8594,25.7813 501.1172,26.0391 Q501.375,26.2969 501.375,26.6406 Q501.375,26.9844 501.0313,27.3906 Q500.5313,27.9688 499.7344,28.2969 Q498.6563,28.75 497.3594,28.75 Q495.8438,28.75 494.6406,28.125 Q493.6563,27.625 492.9688,26.5547 Q492.2813,25.4844 492.2813,24.2031 L492.2813,23.0469 Q492.2813,21.7188 492.8984,20.5703 Q493.5156,19.4219 494.6094,18.8047 Q495.7031,18.1875 496.9375,18.1875 Q497.6719,18.1875 498.3203,18.3516 Q498.9688,18.5156 499.5156,18.875 Z " fill="#000000"/><text fill="#000000" font-family="sans-serif" font-size="14" lengthAdjust="spacing" textLength="40" x="517.25" y="28.7285">Scene</text><line style="stroke:#181818;stroke-width:0.5;" x1="368.5" x2="673.5" y1="39" y2="39"/><rect fill="none" height="6" style="stroke:#C82930;stroke-width:1.0;" width="6" x="375.5" y="50.3047"/><text fill="#000000" font-family="sans-serif" font-size="14" lengthAdjust="spacing" textLength="112" x="387.5" y="57.5332">gameObjects : list</text><line style="stroke:#181818;stroke-width:0.5;" x1="368.5" x2="673.5" y1="64.6094" y2="64.6094"/><ellipse cx="378.5" cy="78.9141" fill="#84BE84" rx="3" ry="3" style="stroke:#038048;stroke-width:1.0;"/><text fill="#000000" font-family="sans-serif" font-size="14" lengthAdjust="spacing" textLength="229" x="387.5" y="83.1426">AddGameObject(gameObject) : bool</text><ellipse cx="378.5" cy="96.5234" fill="#84BE84" rx="3" ry="3" style="stroke:#038048;stroke-width:1.0;"/><text fill="#000000" font-family="sans-serif" font-size="14" lengthAdjust="spacing" textLength="256" x="387.5" y="100.752">RemoveGameObject(gameObject) : bool</text><ellipse cx="378.5" cy="114.1328" fill="#84BE84" rx="3" ry="3" style="stroke:#038048;stroke-width:1.0;"/><text fill="#000000" font-family="sans-serif" font-size="14" lengthAdjust="spacing" textLength="80" x="387.5" y="118.3613">StartScene()</text><ellipse cx="378.5" cy="131.7422" fill="#84BE84" rx="3" ry="3" style="stroke:#038048;stroke-width:1.0;"/><text fill="#000000" font-family="sans-serif" font-size="14" lengthAdjust="spacing" textLength="157" x="387.5" y="135.9707">UpdateScene(deltaTime)</text><ellipse cx="378.5" cy="149.3516" fill="#84BE84" rx="3" ry="3" style="stroke:#038048;stroke-width:1.0;"/><text fill="#000000" font-family="sans-serif" font-size="14" lengthAdjust="spacing" textLength="212" x="387.5" y="153.5801">GetComponents(compName) : list</text><ellipse cx="378.5" cy="166.9609" fill="#84BE84" rx="3" ry="3" style="stroke:#038048;stroke-width:1.0;"/><text fill="#000000" font-family="sans-serif" font-size="14" lengthAdjust="spacing" textLength="281" x="387.5" y="171.1895">GetObjectsWithComponent(compName) : list</text></g><!--class GameObject--><g id="elem_GameObject"><rect codeLine="35" fill="#F1F1F1" height="224.0938" id="GameObject" rx="2.5" ry="2.5" style="stroke:#181818;stroke-width:0.5;" width="355" x="343.5" y="273.5"/><ellipse cx="477.25" cy="289.5" fill="#ADD1B2" rx="11" ry="11" style="stroke:#181818;stroke-width:1.0;"/><path d="M480.0156,285.375 Q480.1719,285.1563 480.3594,285.0469 Q480.5469,284.9375 480.7656,284.9375 Q481.1406,284.9375 481.375,285.1953 Q481.6094,285.4531 481.6094,286.0625 L481.6094,287.5156 Q481.6094,288.125 481.375,288.3906 Q481.1406,288.6563 480.7656,288.6563 Q480.4219,288.6563 480.2188,288.4531 Q480.0156,288.2656 479.9063,287.75 Q479.8594,287.3906 479.6719,287.2031 Q479.3438,286.8281 478.7344,286.6094 Q478.125,286.3906 477.5,286.3906 Q476.7344,286.3906 476.1016,286.7188 Q475.4688,287.0469 474.9766,287.7969 Q474.4844,288.5469 474.4844,289.5781 L474.4844,290.6719 Q474.4844,291.9063 475.375,292.7266 Q476.2656,293.5469 477.8594,293.5469 Q478.7969,293.5469 479.4531,293.2969 Q479.8438,293.1406 480.2656,292.7031 Q480.5313,292.4375 480.6797,292.3594 Q480.8281,292.2813 481.0313,292.2813 Q481.3594,292.2813 481.6172,292.5391 Q481.875,292.7969 481.875,293.1406 Q481.875,293.4844 481.5313,293.8906 Q481.0313,294.4688 480.2344,294.7969 Q479.1563,295.25 477.8594,295.25 Q476.3438,295.25 475.1406,294.625 Q474.1563,294.125 473.4688,293.0547 Q472.7813,291.9844 472.7813,290.7031 L472.7813,289.5469 Q472.7813,288.2188 473.3984,287.0703 Q474.0156,285.9219 475.1094,285.3047 Q476.2031,284.6875 477.4375,284.6875 Q478.1719,284.6875 478.8203,284.8516 Q479.4688,285.0156 480.0156,285.375 Z " fill="#000000"/><text fill="#000000" font-family="sans-serif" font-size="14" lengthAdjust="spacing" textLength="79" x="497.75" y="295.2285">GameObject</text><line style="stroke:#181818;stroke-width:0.5;" x1="344.5" x2="697.5" y1="305.5" y2="305.5"/><rect fill="none" height="6" style="stroke:#C82930;stroke-width:1.0;" width="6" x="351.5" y="316.8047"/><text fill="#000000" font-family="sans-serif" font-size="14" lengthAdjust="spacing" textLength="38" x="363.5" y="324.0332">id : int</text><rect fill="none" height="6" style="stroke:#C82930;stroke-width:1.0;" width="6" x="351.5" y="334.4141"/><text fill="#000000" font-family="sans-serif" font-size="14" lengthAdjust="spacing" textLength="111" x="363.5" y="341.6426">components : dict</text><line style="stroke:#181818;stroke-width:0.5;" x1="344.5" x2="697.5" y1="348.7188" y2="348.7188"/><ellipse cx="354.5" cy="363.0234" fill="#84BE84" rx="3" ry="3" style="stroke:#038048;stroke-width:1.0;"/><text fill="#000000" font-family="sans-serif" font-size="14" lengthAdjust="spacing" textLength="73" x="363.5" y="367.252">GetID() : int</text><ellipse cx="354.5" cy="380.6328" fill="#84BE84" rx="3" ry="3" style="stroke:#038048;stroke-width:1.0;"/><text fill="#000000" font-family="sans-serif" font-size="14" lengthAdjust="spacing" textLength="302" x="363.5" y="384.8613">AddComponent(component : Component) : bool</text><ellipse cx="354.5" cy="398.2422" fill="#84BE84" rx="3" ry="3" style="stroke:#038048;stroke-width:1.0;"/><text fill="#000000" font-family="sans-serif" font-size="14" lengthAdjust="spacing" textLength="329" x="363.5" y="402.4707">RemoveComponent(component : Component) : bool</text><ellipse cx="354.5" cy="415.8516" fill="#84BE84" rx="3" ry="3" style="stroke:#038048;stroke-width:1.0;"/><text fill="#000000" font-family="sans-serif" font-size="14" lengthAdjust="spacing" textLength="215" x="363.5" y="420.0801">GetComponent(compName) : bool</text><ellipse cx="354.5" cy="433.4609" fill="#84BE84" rx="3" ry="3" style="stroke:#038048;stroke-width:1.0;"/><text fill="#000000" font-family="sans-serif" font-size="14" lengthAdjust="spacing" textLength="40" x="363.5" y="437.6895">Start()</text><ellipse cx="354.5" cy="451.0703" fill="#84BE84" rx="3" ry="3" style="stroke:#038048;stroke-width:1.0;"/><text fill="#000000" font-family="sans-serif" font-size="14" lengthAdjust="spacing" textLength="117" x="363.5" y="455.2988">Update(deltaTime)</text><ellipse cx="354.5" cy="468.6797" fill="#84BE84" rx="3" ry="3" style="stroke:#038048;stroke-width:1.0;"/><text fill="#000000" font-family="sans-serif" font-size="14" lengthAdjust="spacing" textLength="254" x="363.5" y="472.9082">UpdateCollider(deltaTime, colliders : list)</text><ellipse cx="354.5" cy="486.2891" fill="#84BE84" rx="3" ry="3" style="stroke:#038048;stroke-width:1.0;"/><text fill="#000000" font-family="sans-serif" font-size="14" lengthAdjust="spacing" textLength="235" x="363.5" y="490.5176">UpdatePhysics(deltaTime, mode : int)</text></g><!--class Component--><g id="elem_Component"><rect codeLine="48" fill="#F1F1F1" height="118.4375" id="Component" rx="2.5" ry="2.5" style="stroke:#181818;stroke-width:0.5;" width="158" x="442" y="576"/><ellipse cx="480.85" cy="592" fill="#ADD1B2" rx="11" ry="11" style="stroke:#181818;stroke-width:1.0;"/><path d="M483.6156,587.875 Q483.7719,587.6563 483.9594,587.5469 Q484.1469,587.4375 484.3656,587.4375 Q484.7406,587.4375 484.975,587.6953 Q485.2094,587.9531 485.2094,588.5625 L485.2094,590.0156 Q485.2094,590.625 484.975,590.8906 Q484.7406,591.1563 484.3656,591.1563 Q484.0219,591.1563 483.8188,590.9531 Q483.6156,590.7656 483.5063,590.25 Q483.4594,589.8906 483.2719,589.7031 Q482.9438,589.3281 482.3344,589.1094 Q481.725,588.8906 481.1,588.8906 Q480.3344,588.8906 479.7016,589.2188 Q479.0688,589.5469 478.5766,590.2969 Q478.0844,591.0469 478.0844,592.0781 L478.0844,593.1719 Q478.0844,594.4063 478.975,595.2266 Q479.8656,596.0469 481.4594,596.0469 Q482.3969,596.0469 483.0531,595.7969 Q483.4438,595.6406 483.8656,595.2031 Q484.1313,594.9375 484.2797,594.8594 Q484.4281,594.7813 484.6313,594.7813 Q484.9594,594.7813 485.2172,595.0391 Q485.475,595.2969 485.475,595.6406 Q485.475,595.9844 485.1313,596.3906 Q484.6313,596.9688 483.8344,597.2969 Q482.7563,597.75 481.4594,597.75 Q479.9438,597.75 478.7406,597.125 Q477.7563,596.625 477.0688,595.5547 Q476.3813,594.4844 476.3813,593.2031 L476.3813,592.0469 Q476.3813,590.7188 476.9984,589.5703 Q477.6156,588.4219 478.7094,587.8047 Q479.8031,587.1875 481.0375,587.1875 Q481.7719,587.1875 482.4203,587.3516 Q483.0688,587.5156 483.6156,587.875 Z " fill="#000000"/><text fill="#000000" font-family="sans-serif" font-size="14" lengthAdjust="spacing" textLength="73" x="500.15" y="597.7285">Component</text><line style="stroke:#181818;stroke-width:0.5;" x1="443" x2="599" y1="608" y2="608"/><ellipse cx="453" cy="622.3047" fill="none" rx="3" ry="3" style="stroke:#038048;stroke-width:1.0;"/><text fill="#000000" font-family="sans-serif" font-size="14" lengthAdjust="spacing" textLength="82" x="462" y="626.5332">name : string</text><ellipse cx="453" cy="639.9141" fill="none" rx="3" ry="3" style="stroke:#038048;stroke-width:1.0;"/><text fill="#000000" font-family="sans-serif" font-size="14" lengthAdjust="spacing" textLength="132" x="462" y="644.1426">parent : GameObject</text><line style="stroke:#181818;stroke-width:0.5;" x1="443" x2="599" y1="651.2188" y2="651.2188"/><ellipse cx="453" cy="665.5234" fill="#84BE84" rx="3" ry="3" style="stroke:#038048;stroke-width:1.0;"/><text fill="#000000" font-family="sans-serif" font-size="14" lengthAdjust="spacing" textLength="40" x="462" y="669.752">Start()</text><ellipse cx="453" cy="683.1328" fill="#84BE84" rx="3" ry="3" style="stroke:#038048;stroke-width:1.0;"/><text fill="#000000" font-family="sans-serif" font-size="14" lengthAdjust="spacing" textLength="117" x="462" y="687.3613">Update(deltaTime)</text></g><!--class Collider--><g id="elem_Collider"><rect codeLine="55" fill="#F1F1F1" height="118.4375" id="Collider" rx="2.5" ry="2.5" style="stroke:#181818;stroke-width:0.5;" width="199" x="75.5" y="825.5"/><ellipse cx="146.75" cy="841.5" fill="#ADD1B2" rx="11" ry="11" style="stroke:#181818;stroke-width:1.0;"/><path d="M149.5156,837.375 Q149.6719,837.1563 149.8594,837.0469 Q150.0469,836.9375 150.2656,836.9375 Q150.6406,836.9375 150.875,837.1953 Q151.1094,837.4531 151.1094,838.0625 L151.1094,839.5156 Q151.1094,840.125 150.875,840.3906 Q150.6406,840.6563 150.2656,840.6563 Q149.9219,840.6563 149.7188,840.4531 Q149.5156,840.2656 149.4063,839.75 Q149.3594,839.3906 149.1719,839.2031 Q148.8438,838.8281 148.2344,838.6094 Q147.625,838.3906 147,838.3906 Q146.2344,838.3906 145.6016,838.7188 Q144.9688,839.0469 144.4766,839.7969 Q143.9844,840.5469 143.9844,841.5781 L143.9844,842.6719 Q143.9844,843.9063 144.875,844.7266 Q145.7656,845.5469 147.3594,845.5469 Q148.2969,845.5469 148.9531,845.2969 Q149.3438,845.1406 149.7656,844.7031 Q150.0313,844.4375 150.1797,844.3594 Q150.3281,844.2813 150.5313,844.2813 Q150.8594,844.2813 151.1172,844.5391 Q151.375,844.7969 151.375,845.1406 Q151.375,845.4844 151.0313,845.8906 Q150.5313,846.4688 149.7344,846.7969 Q148.6563,847.25 147.3594,847.25 Q145.8438,847.25 144.6406,846.625 Q143.6563,846.125 142.9688,845.0547 Q142.2813,843.9844 142.2813,842.7031 L142.2813,841.5469 Q142.2813,840.2188 142.8984,839.0703 Q143.5156,837.9219 144.6094,837.3047 Q145.7031,836.6875 146.9375,836.6875 Q147.6719,836.6875 148.3203,836.8516 Q148.9688,837.0156 149.5156,837.375 Z " fill="#000000"/><text fill="#000000" font-family="sans-serif" font-size="14" lengthAdjust="spacing" textLength="48" x="167.25" y="847.2285">Collider</text><line style="stroke:#181818;stroke-width:0.5;" x1="76.5" x2="273.5" y1="857.5" y2="857.5"/><ellipse cx="86.5" cy="871.8047" fill="none" rx="3" ry="3" style="stroke:#038048;stroke-width:1.0;"/><text fill="#000000" font-family="sans-serif" font-size="14" lengthAdjust="spacing" textLength="79" x="95.5" y="876.0332">collision : list</text><line style="stroke:#181818;stroke-width:0.5;" x1="76.5" x2="273.5" y1="883.1094" y2="883.1094"/><ellipse cx="86.5" cy="897.4141" fill="#84BE84" rx="3" ry="3" style="stroke:#038048;stroke-width:1.0;"/><text fill="#000000" font-family="sans-serif" font-size="14" lengthAdjust="spacing" textLength="104" x="95.5" y="901.6426">DisplayCollider()</text><ellipse cx="86.5" cy="915.0234" fill="#84BE84" rx="3" ry="3" style="stroke:#038048;stroke-width:1.0;"/><text fill="#000000" font-family="sans-serif" font-size="14" lengthAdjust="spacing" textLength="173" x="95.5" y="919.252">Update(deltaTime,colliders)</text><polygon fill="#FFFF44" points="86.5,927.6328,90.5,931.6328,86.5,935.6328,82.5,931.6328" style="stroke:#B38D22;stroke-width:1.0;"/><text fill="#000000" font-family="sans-serif" font-size="14" lengthAdjust="spacing" textLength="127" x="95.5" y="936.8613">UpdateOnCollision()</text></g><!--class ColliderRect--><g id="elem_ColliderRect"><rect codeLine="62" fill="#F1F1F1" height="171.2656" id="ColliderRect" rx="2.5" ry="2.5" style="stroke:#181818;stroke-width:0.5;" width="150" x="710" y="7"/><ellipse cx="743.45" cy="23" fill="#ADD1B2" rx="11" ry="11" style="stroke:#181818;stroke-width:1.0;"/><path d="M746.2156,18.875 Q746.3719,18.6563 746.5594,18.5469 Q746.7469,18.4375 746.9656,18.4375 Q747.3406,18.4375 747.575,18.6953 Q747.8094,18.9531 747.8094,19.5625 L747.8094,21.0156 Q747.8094,21.625 747.575,21.8906 Q747.3406,22.1563 746.9656,22.1563 Q746.6219,22.1563 746.4188,21.9531 Q746.2156,21.7656 746.1063,21.25 Q746.0594,20.8906 745.8719,20.7031 Q745.5438,20.3281 744.9344,20.1094 Q744.325,19.8906 743.7,19.8906 Q742.9344,19.8906 742.3016,20.2188 Q741.6688,20.5469 741.1766,21.2969 Q740.6844,22.0469 740.6844,23.0781 L740.6844,24.1719 Q740.6844,25.4063 741.575,26.2266 Q742.4656,27.0469 744.0594,27.0469 Q744.9969,27.0469 745.6531,26.7969 Q746.0438,26.6406 746.4656,26.2031 Q746.7313,25.9375 746.8797,25.8594 Q747.0281,25.7813 747.2313,25.7813 Q747.5594,25.7813 747.8172,26.0391 Q748.075,26.2969 748.075,26.6406 Q748.075,26.9844 747.7313,27.3906 Q747.2313,27.9688 746.4344,28.2969 Q745.3563,28.75 744.0594,28.75 Q742.5438,28.75 741.3406,28.125 Q740.3563,27.625 739.6688,26.5547 Q738.9813,25.4844 738.9813,24.2031 L738.9813,23.0469 Q738.9813,21.7188 739.5984,20.5703 Q740.2156,19.4219 741.3094,18.8047 Q742.4031,18.1875 743.6375,18.1875 Q744.3719,18.1875 745.0203,18.3516 Q745.6688,18.5156 746.2156,18.875 Z " fill="#000000"/><text fill="#000000" font-family="sans-serif" font-size="14" lengthAdjust="spacing" textLength="77" x="761.55" y="28.7285">ColliderRect</text><line style="stroke:#181818;stroke-width:0.5;" x1="711" x2="859" y1="39" y2="39"/><ellipse cx="721" cy="53.3047" fill="none" rx="3" ry="3" style="stroke:#038048;stroke-width:1.0;"/><text fill="#000000" font-family="sans-serif" font-size="14" lengthAdjust="spacing" textLength="124" x="730" y="57.5332">colliderType : string</text><text fill="#000000" font-family="sans-serif" font-size="14" lengthAdjust="spacing" textLength="8" x="730" y="75.1426">+</text><text fill="#000000" font-family="sans-serif" font-size="14" lengthAdjust="spacing" textLength="8" x="730" y="92.752">+</text><text fill="#000000" font-family="sans-serif" font-size="14" lengthAdjust="spacing" textLength="8" x="730" y="110.3613">+</text><text fill="#000000" font-family="sans-serif" font-size="14" lengthAdjust="spacing" textLength="8" x="730" y="127.9707">+</text><text fill="#000000" font-family="sans-serif" font-size="14" lengthAdjust="spacing" textLength="8" x="730" y="145.5801">+</text><text fill="#000000" font-family="sans-serif" font-size="14" lengthAdjust="spacing" textLength="8" x="730" y="163.1895">+</text><line style="stroke:#181818;stroke-width:0.5;" x1="711" x2="859" y1="170.2656" y2="170.2656"/></g><!--class Physics--><g id="elem_Physics"><rect codeLine="72" fill="#F1F1F1" height="259.3125" id="Physics" rx="2.5" ry="2.5" style="stroke:#181818;stroke-width:0.5;" width="213" x="309.5" y="755"/><ellipse cx="387.75" cy="771" fill="#ADD1B2" rx="11" ry="11" style="stroke:#181818;stroke-width:1.0;"/><path d="M390.5156,766.875 Q390.6719,766.6563 390.8594,766.5469 Q391.0469,766.4375 391.2656,766.4375 Q391.6406,766.4375 391.875,766.6953 Q392.1094,766.9531 392.1094,767.5625 L392.1094,769.0156 Q392.1094,769.625 391.875,769.8906 Q391.6406,770.1563 391.2656,770.1563 Q390.9219,770.1563 390.7188,769.9531 Q390.5156,769.7656 390.4063,769.25 Q390.3594,768.8906 390.1719,768.7031 Q389.8438,768.3281 389.2344,768.1094 Q388.625,767.8906 388,767.8906 Q387.2344,767.8906 386.6016,768.2188 Q385.9688,768.5469 385.4766,769.2969 Q384.9844,770.0469 384.9844,771.0781 L384.9844,772.1719 Q384.9844,773.4063 385.875,774.2266 Q386.7656,775.0469 388.3594,775.0469 Q389.2969,775.0469 389.9531,774.7969 Q390.3438,774.6406 390.7656,774.2031 Q391.0313,773.9375 391.1797,773.8594 Q391.3281,773.7813 391.5313,773.7813 Q391.8594,773.7813 392.1172,774.0391 Q392.375,774.2969 392.375,774.6406 Q392.375,774.9844 392.0313,775.3906 Q391.5313,775.9688 390.7344,776.2969 Q389.6563,776.75 388.3594,776.75 Q386.8438,776.75 385.6406,776.125 Q384.6563,775.625 383.9688,774.5547 Q383.2813,773.4844 383.2813,772.2031 L383.2813,771.0469 Q383.2813,769.7188 383.8984,768.5703 Q384.5156,767.4219 385.6094,766.8047 Q386.7031,766.1875 387.9375,766.1875 Q388.6719,766.1875 389.3203,766.3516 Q389.9688,766.5156 390.5156,766.875 Z " fill="#000000"/><text fill="#000000" font-family="sans-serif" font-size="14" lengthAdjust="spacing" textLength="48" x="408.25" y="776.7285">Physics</text><line style="stroke:#181818;stroke-width:0.5;" x1="310.5" x2="521.5" y1="787" y2="787"/><ellipse cx="320.5" cy="801.3047" fill="none" rx="3" ry="3" style="stroke:#038048;stroke-width:1.0;"/><text fill="#000000" font-family="sans-serif" font-size="14" lengthAdjust="spacing" textLength="72" x="329.5" y="805.5332">mass : float</text><ellipse cx="320.5" cy="818.9141" fill="none" rx="3" ry="3" style="stroke:#038048;stroke-width:1.0;"/><text fill="#000000" font-family="sans-serif" font-size="14" lengthAdjust="spacing" textLength="139" x="329.5" y="823.1426">momentOfInertia: float</text><ellipse cx="320.5" cy="836.5234" fill="none" rx="3" ry="3" style="stroke:#038048;stroke-width:1.0;"/><text fill="#000000" font-family="sans-serif" font-size="14" lengthAdjust="spacing" textLength="101" x="329.5" y="840.752">restitution : float</text><ellipse cx="320.5" cy="854.1328" fill="none" rx="3" ry="3" style="stroke:#038048;stroke-width:1.0;"/><text fill="#000000" font-family="sans-serif" font-size="14" lengthAdjust="spacing" textLength="91" x="329.5" y="858.3613">velocity : Vec2</text><ellipse cx="320.5" cy="871.7422" fill="none" rx="3" ry="3" style="stroke:#038048;stroke-width:1.0;"/><text fill="#000000" font-family="sans-serif" font-size="14" lengthAdjust="spacing" textLength="121" x="329.5" y="875.9707">acceleration : Vec2</text><ellipse cx="320.5" cy="889.3516" fill="none" rx="3" ry="3" style="stroke:#038048;stroke-width:1.0;"/><text fill="#000000" font-family="sans-serif" font-size="14" lengthAdjust="spacing" textLength="128" x="329.5" y="893.5801">angularSpeed : float</text><ellipse cx="320.5" cy="906.9609" fill="none" rx="3" ry="3" style="stroke:#038048;stroke-width:1.0;"/><text fill="#000000" font-family="sans-serif" font-size="14" lengthAdjust="spacing" textLength="110" x="329.5" y="911.1895">angularAcc : float</text><ellipse cx="320.5" cy="924.5703" fill="none" rx="3" ry="3" style="stroke:#038048;stroke-width:1.0;"/><text fill="#000000" font-family="sans-serif" font-size="14" lengthAdjust="spacing" textLength="151" x="329.5" y="928.7988">constraintPosition : bool</text><ellipse cx="320.5" cy="942.1797" fill="none" rx="3" ry="3" style="stroke:#038048;stroke-width:1.0;"/><text fill="#000000" font-family="sans-serif" font-size="14" lengthAdjust="spacing" textLength="154" x="329.5" y="946.4082">constraintRotation : bool</text><line style="stroke:#181818;stroke-width:0.5;" x1="310.5" x2="521.5" y1="953.4844" y2="953.4844"/><ellipse cx="320.5" cy="967.7891" fill="#84BE84" rx="3" ry="3" style="stroke:#038048;stroke-width:1.0;"/><text fill="#000000" font-family="sans-serif" font-size="14" lengthAdjust="spacing" textLength="187" x="329.5" y="972.0176">Update(deltaTime, mode : int)</text><ellipse cx="320.5" cy="985.3984" fill="#84BE84" rx="3" ry="3" style="stroke:#038048;stroke-width:1.0;"/><text fill="#000000" font-family="sans-serif" font-size="14" lengthAdjust="spacing" textLength="148" x="329.5" y="989.627">AddForce(force : Vec2)</text><ellipse cx="320.5" cy="1003.0078" fill="#84BE84" rx="3" ry="3" style="stroke:#038048;stroke-width:1.0;"/><text fill="#000000" font-family="sans-serif" font-size="14" lengthAdjust="spacing" textLength="161" x="329.5" y="1007.2363">AddTorque(torque : float)</text></g><!--class Sprite--><g id="elem_Sprite"><rect codeLine="87" fill="#F1F1F1" height="83.2188" id="Sprite" rx="2.5" ry="2.5" style="stroke:#181818;stroke-width:0.5;" width="138" x="558" y="843"/><ellipse cx="604.25" cy="859" fill="#ADD1B2" rx="11" ry="11" style="stroke:#181818;stroke-width:1.0;"/><path d="M607.0156,854.875 Q607.1719,854.6563 607.3594,854.5469 Q607.5469,854.4375 607.7656,854.4375 Q608.1406,854.4375 608.375,854.6953 Q608.6094,854.9531 608.6094,855.5625 L608.6094,857.0156 Q608.6094,857.625 608.375,857.8906 Q608.1406,858.1563 607.7656,858.1563 Q607.4219,858.1563 607.2188,857.9531 Q607.0156,857.7656 606.9063,857.25 Q606.8594,856.8906 606.6719,856.7031 Q606.3438,856.3281 605.7344,856.1094 Q605.125,855.8906 604.5,855.8906 Q603.7344,855.8906 603.1016,856.2188 Q602.4688,856.5469 601.9766,857.2969 Q601.4844,858.0469 601.4844,859.0781 L601.4844,860.1719 Q601.4844,861.4063 602.375,862.2266 Q603.2656,863.0469 604.8594,863.0469 Q605.7969,863.0469 606.4531,862.7969 Q606.8438,862.6406 607.2656,862.2031 Q607.5313,861.9375 607.6797,861.8594 Q607.8281,861.7813 608.0313,861.7813 Q608.3594,861.7813 608.6172,862.0391 Q608.875,862.2969 608.875,862.6406 Q608.875,862.9844 608.5313,863.3906 Q608.0313,863.9688 607.2344,864.2969 Q606.1563,864.75 604.8594,864.75 Q603.3438,864.75 602.1406,864.125 Q601.1563,863.625 600.4688,862.5547 Q599.7813,861.4844 599.7813,860.2031 L599.7813,859.0469 Q599.7813,857.7188 600.3984,856.5703 Q601.0156,855.4219 602.1094,854.8047 Q603.2031,854.1875 604.4375,854.1875 Q605.1719,854.1875 605.8203,854.3516 Q606.4688,854.5156 607.0156,854.875 Z " fill="#000000"/><text fill="#000000" font-family="sans-serif" font-size="14" lengthAdjust="spacing" textLength="37" x="624.75" y="864.7285">Sprite</text><line style="stroke:#181818;stroke-width:0.5;" x1="559" x2="695" y1="875" y2="875"/><text fill="#000000" font-family="sans-serif" font-size="14" lengthAdjust="spacing" textLength="83" x="564" y="893.5332">b_proc : bool</text><text fill="#000000" font-family="sans-serif" font-size="14" lengthAdjust="spacing" textLength="126" x="564" y="911.1426">s_spritePath : string</text><line style="stroke:#181818;stroke-width:0.5;" x1="559" x2="695" y1="918.2188" y2="918.2188"/></g><!--class Transform--><g id="elem_Transform"><rect codeLine="92" fill="#F1F1F1" height="171.2656" id="Transform" rx="2.5" ry="2.5" style="stroke:#181818;stroke-width:0.5;" width="185" x="731.5" y="799"/><ellipse cx="787.25" cy="815" fill="#ADD1B2" rx="11" ry="11" style="stroke:#181818;stroke-width:1.0;"/><path d="M790.0156,810.875 Q790.1719,810.6563 790.3594,810.5469 Q790.5469,810.4375 790.7656,810.4375 Q791.1406,810.4375 791.375,810.6953 Q791.6094,810.9531 791.6094,811.5625 L791.6094,813.0156 Q791.6094,813.625 791.375,813.8906 Q791.1406,814.1563 790.7656,814.1563 Q790.4219,814.1563 790.2188,813.9531 Q790.0156,813.7656 789.9063,813.25 Q789.8594,812.8906 789.6719,812.7031 Q789.3438,812.3281 788.7344,812.1094 Q788.125,811.8906 787.5,811.8906 Q786.7344,811.8906 786.1016,812.2188 Q785.4688,812.5469 784.9766,813.2969 Q784.4844,814.0469 784.4844,815.0781 L784.4844,816.1719 Q784.4844,817.4063 785.375,818.2266 Q786.2656,819.0469 787.8594,819.0469 Q788.7969,819.0469 789.4531,818.7969 Q789.8438,818.6406 790.2656,818.2031 Q790.5313,817.9375 790.6797,817.8594 Q790.8281,817.7813 791.0313,817.7813 Q791.3594,817.7813 791.6172,818.0391 Q791.875,818.2969 791.875,818.6406 Q791.875,818.9844 791.5313,819.3906 Q791.0313,819.9688 790.2344,820.2969 Q789.1563,820.75 787.8594,820.75 Q786.3438,820.75 785.1406,820.125 Q784.1563,819.625 783.4688,818.5547 Q782.7813,817.4844 782.7813,816.2031 L782.7813,815.0469 Q782.7813,813.7188 783.3984,812.5703 Q784.0156,811.4219 785.1094,810.8047 Q786.2031,810.1875 787.4375,810.1875 Q788.1719,810.1875 788.8203,810.3516 Q789.4688,810.5156 790.0156,810.875 Z " fill="#000000"/><text fill="#000000" font-family="sans-serif" font-size="14" lengthAdjust="spacing" textLength="65" x="807.75" y="820.7285">Transform</text><line style="stroke:#181818;stroke-width:0.5;" x1="732.5" x2="915.5" y1="831" y2="831"/><ellipse cx="742.5" cy="845.3047" fill="none" rx="3" ry="3" style="stroke:#038048;stroke-width:1.0;"/><text fill="#000000" font-family="sans-serif" font-size="14" lengthAdjust="spacing" textLength="93" x="751.5" y="849.5332">position : Vec2</text><ellipse cx="742.5" cy="862.9141" fill="none" rx="3" ry="3" style="stroke:#038048;stroke-width:1.0;"/><text fill="#000000" font-family="sans-serif" font-size="14" lengthAdjust="spacing" textLength="87" x="751.5" y="867.1426">rotation : float</text><ellipse cx="742.5" cy="880.5234" fill="none" rx="3" ry="3" style="stroke:#038048;stroke-width:1.0;"/><text fill="#000000" font-family="sans-serif" font-size="14" lengthAdjust="spacing" textLength="77" x="751.5" y="884.752">scale : Vec2</text><ellipse cx="742.5" cy="898.1328" fill="none" rx="3" ry="3" style="stroke:#038048;stroke-width:1.0;"/><text fill="#000000" font-family="sans-serif" font-size="14" lengthAdjust="spacing" textLength="91" x="751.5" y="902.3613">forward : Vec2</text><ellipse cx="742.5" cy="915.7422" fill="none" rx="3" ry="3" style="stroke:#038048;stroke-width:1.0;"/><text fill="#000000" font-family="sans-serif" font-size="14" lengthAdjust="spacing" textLength="60" x="751.5" y="919.9707">up : Vec2</text><line style="stroke:#181818;stroke-width:0.5;" x1="732.5" x2="915.5" y1="927.0469" y2="927.0469"/><ellipse cx="742.5" cy="941.3516" fill="#84BE84" rx="3" ry="3" style="stroke:#038048;stroke-width:1.0;"/><text fill="#000000" font-family="sans-serif" font-size="14" lengthAdjust="spacing" textLength="126" x="751.5" y="945.5801">Rotate(angle : float)</text><ellipse cx="742.5" cy="958.9609" fill="#84BE84" rx="3" ry="3" style="stroke:#038048;stroke-width:1.0;"/><text fill="#000000" font-family="sans-serif" font-size="14" lengthAdjust="spacing" textLength="159" x="751.5" y="963.1895">LookAt(targetPos : Vec2)</text></g><!--reverse link World to Scene--><g id="link_World_Scene"><path codeLine="102" d="M281,92.5 C312.63,92.5 334.71,92.5 367.27,92.5 " fill="none" id="World-backto-Scene" style="stroke:#181818;stroke-width:1.0;"/><polygon fill="#181818" points="269,92.5,275,96.5,281,92.5,275,88.5,269,92.5" style="stroke:#181818;stroke-width:1.0;"/><polygon fill="#000000" points="296.25,80.6758,287.2049,77.7369,287.2049,83.6147,296.25,80.6758" style="stroke:#000000;stroke-width:1.0;"/><text fill="#000000" font-family="sans-serif" font-size="13" lengthAdjust="spacing" textLength="49" x="300.25" y="85.9951">contains</text><text fill="#000000" font-family="sans-serif" font-size="13" lengthAdjust="spacing" textLength="7" x="276.8914" y="89.5351">1</text><text fill="#000000" font-family="sans-serif" font-size="13" lengthAdjust="spacing" textLength="20" x="335.2425" y="106.3847">1..*</text></g><!--reverse link Scene to GameObject--><g id="link_Scene_GameObject"><path codeLine="103" d="M521,190.06 C521,219.85 521,241.79 521,273.43 " fill="none" id="Scene-backto-GameObject" style="stroke:#181818;stroke-width:1.0;"/><polygon fill="#181818" points="521,178.06,517,184.06,521,190.06,525,184.06,521,178.06" style="stroke:#181818;stroke-width:1.0;"/><polygon fill="#000000" points="526,222.1758,528.9389,213.1307,523.0611,213.1307,526,222.1758" style="stroke:#000000;stroke-width:1.0;"/><text fill="#000000" font-family="sans-serif" font-size="13" lengthAdjust="spacing" textLength="49" x="535" y="222.4951">contains</text><text fill="#000000" font-family="sans-serif" font-size="13" lengthAdjust="spacing" textLength="7" x="509.5102" y="199.8916">1</text><text fill="#000000" font-family="sans-serif" font-size="13" lengthAdjust="spacing" textLength="20" x="496.1563" y="262.4918">1..*</text></g><!--reverse link GameObject to Component--><g id="link_GameObject_Component"><path codeLine="104" d="M521,509.58 C521,536.57 521,552.37 521,575.77 " fill="none" id="GameObject-backto-Component" style="stroke:#181818;stroke-width:1.0;"/><polygon fill="none" points="521,497.58,517,503.58,521,509.58,525,503.58,521,497.58" style="stroke:#181818;stroke-width:1.0;"/></g><!--link Vector to GameObject--><!--reverse link Component to Collider--><g id="link_Component_Collider"><path codeLine="106" d="M436.4714,671.1508 C390.3614,692.1908 337.9,719.69 292,755 C265.81,775.14 240.62,801.57 220.37,825.21 " fill="none" id="Component-backto-Collider" style="stroke:#181818;stroke-width:1.0;"/><polygon fill="#181818" points="441.93,668.66,432.0816,668.7571,437.3812,670.7356,435.4026,676.0352,441.93,668.66" style="stroke:#181818;stroke-width:1.0;"/></g><!--reverse link Component to Physics--><g id="link_Component_Physics"><path codeLine="107" d="M494.0364,699.5534 C486.2164,717.9834 479.58,733.63 470.52,754.99 " fill="none" id="Component-backto-Physics" style="stroke:#181818;stroke-width:1.0;"/><polygon fill="#181818" points="496.38,694.03,489.1823,700.7526,494.427,698.6328,496.5468,703.8774,496.38,694.03" style="stroke:#181818;stroke-width:1.0;"/></g><!--reverse link Component to Sprite--><g id="link_Component_Sprite"><path codeLine="108" d="M548.2121,699.5455 C567.7921,745.2655 592.24,802.33 609.59,842.84 " fill="none" id="Component-backto-Sprite" style="stroke:#181818;stroke-width:1.0;"/><polygon fill="#181818" points="545.85,694.03,545.7161,703.8779,547.8184,698.6262,553.0701,700.7285,545.85,694.03" style="stroke:#181818;stroke-width:1.0;"/></g><!--reverse link Component to Transform--><g id="link_Component_Transform"><path codeLine="109" d="M605.5765,680.4621 C641.9965,701.3221 679.45,725.44 714,755 C729.29,768.08 744.27,783.36 758.01,798.72 " fill="none" id="Component-backto-Transform" style="stroke:#181818;stroke-width:1.0;"/><polygon fill="#181818" points="600.37,677.48,606.1917,685.4241,604.7087,679.9651,610.1677,678.4821,600.37,677.48" style="stroke:#181818;stroke-width:1.0;"/></g><!--SRC=[lLTHRzCm47xVhx3W9TtQIV280AbiOfe4QxKMze3GvDhNrionCzlTADF-EnSdTPh6IOj0z67DSjztllk-Y-FQEw4oQcXAPfJTBOnUANwcfJRaSIaS717yC4cj9L-1EMsU_9tyypGN8Fap-KdUaBdKr3KYwsOa1RVK63eXvzebsYt180XJl-wLtp7iPxf8Ubt99lTx8MCmMTAro9KsAPNY5no6ufsmeLf8-03k4K0LRNONP_GFb1VuQ0lTbljQE-eWeVaINRY9p5lEIaIVt8ShjwcbHd_UClj66ycRNW-8PQ308eqBvY9nofnuW4cEGf3_Zkh3kOybFjyLJQ5VfCuhccajeur3gilS5Q-BC04thEevaEEegR5wCTINZAC7sp0Eqj6fIE7TbSOs6efwL4pH1HOqckNsvx9AOLsBO1S1c5IS_NhzCSqhiBVtdQwZo0jmPphDK0_bRCBmSgD-Mvl8ABMu4MuPo77kyz6MlbMRCP45Hw9GiObbeSB6LDVgkZptJtmjISsVUhN-2l7Xxdwd_YB1jj8riJfDxl9tZxK52DyKKd0m5RYFUXRtDjFSGHylrrOmkyrEDOT2vLxJuz1Yq-8Jeh1ZP5fdX5f4ulYMAmIj9kMV2BDJOT5yh40lZ1LQTSp_kR2PfEkWwq5rz8Fa4VZB4ZvIPvlraux2hwCFq4bmTRhEEbN-7xTgXPSp5AivpUDjXnCCwnG7OZI_L62SeEr00zO9jtA5TMse1v2Q2RTkl943WZ86-4wcPQ8sb5gi93MJ381tB5V2XenrW9XMw1J5fscihIZNhMy94Qm_OCIm7IFOU72R- -D7RHWay_plvipNWfngSx-2nFclS5PfUZ_939vHczRFRZEZMLkhzjPwtfYwPNsKQycdXYgBrQQnqSegELjiD9M8RUvOHYMqPy2r7wdXxO1LTk0fiIxX3l2JrdT3b-2sju1yJ6hUb8huuo1vyOgy8CU3WS6hqzDZ_6TppiFPSJWvbhptyEBs1XxGrSRRf6p5D5B2JhyR7CXlIy4vgE_b3n8F273orfEBlIeIAdUBIAIOfKWWpC5l]--></g></svg>