<?xml version="1.0" encoding="us-ascii" standalone="no"?><svg xmlns="http://www.w3.org/2000/svg" xmlns:xlink="http://www.w3.org/1999/xlink" contentStyleType="text/css" height="1448px" preserveAspectRatio="none" style="width:931px;height:1448px;background:#FFFFFF;" version="1.1" viewBox="0 0 931 1448" width="931px" zoomAndPan="magnify"><defs/><g><!--class Vector--><g id="elem_Vector"><rect codeLine="5" fill="#F1F1F1" height="259.3125" id="Vector" rx="2.5" ry="2.5" style="stroke:#181818;stroke-width:0.5;" width="276" x="40" y="449"/><ellipse cx="153.25" cy="465" fill="#ADD1B2" rx="11" ry="11" style="stroke:#181818;stroke-width:1.0;"/><path d="M156.0156,460.875 Q156.1719,460.6563 156.3594,460.5469 Q156.5469,460.4375 156.7656,460.4375 Q157.1406,460.4375 157.375,460.6953 Q157.6094,460.9531 157.6094,461.5625 L157.6094,463.0156 Q157.6094,463.625 157.375,463.8906 Q157.1406,464.1563 156.7656,464.1563 Q156.4219,464.1563 156.2188,463.9531 Q156.0156,463.7656 155.9063,463.25 Q155.8594,462.8906 155.6719,462.7031 Q155.3438,462.3281 154.7344,462.1094 Q154.125,461.8906 153.5,461.8906 Q152.7344,461.8906 152.1016,462.2188 Q151.4688,462.5469 150.9766,463.2969 Q150.4844,464.0469 150.4844,465.0781 L150.4844,466.1719 Q150.4844,467.4063 151.375,468.2266 Q152.2656,469.0469 153.8594,469.0469 Q154.7969,469.0469 155.4531,468.7969 Q155.8438,468.6406 156.2656,468.2031 Q156.5313,467.9375 156.6797,467.8594 Q156.8281,467.7813 157.0313,467.7813 Q157.3594,467.7813 157.6172,468.0391 Q157.875,468.2969 157.875,468.6406 Q157.875,468.9844 157.5313,469.3906 Q157.0313,469.9688 156.2344,470.2969 Q155.1563,470.75 153.8594,470.75 Q152.3438,470.75 151.1406,470.125 Q150.1563,469.625 149.4688,468.5547 Q148.7813,467.4844 148.7813,466.2031 L148.7813,465.0469 Q148.7813,463.7188 149.3984,462.5703 Q150.0156,461.4219 151.1094,460.8047 Q152.2031,460.1875 153.4375,460.1875 Q154.1719,460.1875 154.8203,460.3516 Q155.4688,460.5156 156.0156,460.875 Z " fill="#000000"/><text fill="#000000" font-family="sans-serif" font-size="14" lengthAdjust="spacing" textLength="41" x="173.75" y="470.7285">Vector</text><line style="stroke:#181818;stroke-width:0.5;" x1="41" x2="315" y1="481" y2="481"/><text fill="#000000" font-family="sans-serif" font-size="14" lengthAdjust="spacing" textLength="45" x="46" y="499.5332">x : float</text><text fill="#000000" font-family="sans-serif" font-size="14" lengthAdjust="spacing" textLength="46" x="46" y="517.1426">y : float</text><line style="stroke:#181818;stroke-width:0.5;" x1="41" x2="315" y1="524.2188" y2="524.2188"/><ellipse cx="51" cy="538.5234" fill="#84BE84" rx="3" ry="3" style="stroke:#038048;stroke-width:1.0;"/><text fill="#000000" font-family="sans-serif" font-size="14" lengthAdjust="spacing" textLength="153" x="60" y="542.752">Dot(other : Vec2) : Vec2</text><ellipse cx="51" cy="556.1328" fill="#84BE84" rx="3" ry="3" style="stroke:#038048;stroke-width:1.0;"/><text fill="#000000" font-family="sans-serif" font-size="14" lengthAdjust="spacing" textLength="76" x="60" y="560.3613">Mag() : float</text><ellipse cx="51" cy="573.7422" fill="#84BE84" rx="3" ry="3" style="stroke:#038048;stroke-width:1.0;"/><text fill="#000000" font-family="sans-serif" font-size="14" lengthAdjust="spacing" textLength="93" x="60" y="577.9707">SqMag() : float</text><ellipse cx="51" cy="591.3516" fill="#84BE84" rx="3" ry="3" style="stroke:#038048;stroke-width:1.0;"/><text fill="#000000" font-family="sans-serif" font-size="14" lengthAdjust="spacing" textLength="84" x="60" y="595.5801">Perp() : Vec2</text><ellipse cx="51" cy="608.9609" fill="#84BE84" rx="3" ry="3" style="stroke:#038048;stroke-width:1.0;"/><text fill="#000000" font-family="sans-serif" font-size="14" lengthAdjust="spacing" textLength="115" x="60" y="613.1895">Normalize() : Vec2</text><ellipse cx="51" cy="626.5703" fill="#84BE84" rx="3" ry="3" style="stroke:#038048;stroke-width:1.0;"/><text fill="#000000" font-family="sans-serif" font-size="14" lengthAdjust="spacing" textLength="123" x="60" y="630.7988">Normalized() : Vec2</text><ellipse cx="51" cy="644.1797" fill="#84BE84" rx="3" ry="3" style="stroke:#038048;stroke-width:1.0;"/><text fill="#000000" font-family="sans-serif" font-size="14" lengthAdjust="spacing" textLength="172" x="60" y="648.4082">AngleBetween(other) : float</text><ellipse cx="51" cy="661.7891" fill="#84BE84" rx="3" ry="3" style="stroke:#038048;stroke-width:1.0;"/><text fill="#000000" font-family="sans-serif" font-size="14" lengthAdjust="spacing" textLength="166" x="60" y="666.0176">ProjectedOn(other) : Vec2</text><ellipse cx="51" cy="679.3984" fill="#84BE84" rx="3" ry="3" style="stroke:#038048;stroke-width:1.0;"/><text fill="#000000" font-family="sans-serif" font-size="14" lengthAdjust="spacing" textLength="131" x="60" y="683.627">Rotate(angle) : Vec2</text><ellipse cx="51" cy="697.0078" fill="#84BE84" rx="3" ry="3" style="stroke:#038048;stroke-width:1.0;"/><text fill="#000000" font-family="sans-serif" font-size="14" lengthAdjust="spacing" textLength="250" x="60" y="701.2363">Slerp(p : Vec2, q : Vec2, t : float) : Vec2</text></g><!--class World--><g id="elem_World"><rect codeLine="19" fill="#F1F1F1" height="171.2656" id="World" rx="2.5" ry="2.5" style="stroke:#181818;stroke-width:0.5;" width="262" x="398" y="7"/><ellipse cx="506.25" cy="23" fill="#ADD1B2" rx="11" ry="11" style="stroke:#181818;stroke-width:1.0;"/><path d="M509.0156,18.875 Q509.1719,18.6563 509.3594,18.5469 Q509.5469,18.4375 509.7656,18.4375 Q510.1406,18.4375 510.375,18.6953 Q510.6094,18.9531 510.6094,19.5625 L510.6094,21.0156 Q510.6094,21.625 510.375,21.8906 Q510.1406,22.1563 509.7656,22.1563 Q509.4219,22.1563 509.2188,21.9531 Q509.0156,21.7656 508.9063,21.25 Q508.8594,20.8906 508.6719,20.7031 Q508.3438,20.3281 507.7344,20.1094 Q507.125,19.8906 506.5,19.8906 Q505.7344,19.8906 505.1016,20.2188 Q504.4688,20.5469 503.9766,21.2969 Q503.4844,22.0469 503.4844,23.0781 L503.4844,24.1719 Q503.4844,25.4063 504.375,26.2266 Q505.2656,27.0469 506.8594,27.0469 Q507.7969,27.0469 508.4531,26.7969 Q508.8438,26.6406 509.2656,26.2031 Q509.5313,25.9375 509.6797,25.8594 Q509.8281,25.7813 510.0313,25.7813 Q510.3594,25.7813 510.6172,26.0391 Q510.875,26.2969 510.875,26.6406 Q510.875,26.9844 510.5313,27.3906 Q510.0313,27.9688 509.2344,28.2969 Q508.1563,28.75 506.8594,28.75 Q505.3438,28.75 504.1406,28.125 Q503.1563,27.625 502.4688,26.5547 Q501.7813,25.4844 501.7813,24.2031 L501.7813,23.0469 Q501.7813,21.7188 502.3984,20.5703 Q503.0156,19.4219 504.1094,18.8047 Q505.2031,18.1875 506.4375,18.1875 Q507.1719,18.1875 507.8203,18.3516 Q508.4688,18.5156 509.0156,18.875 Z " fill="#000000"/><text fill="#000000" font-family="sans-serif" font-size="14" lengthAdjust="spacing" textLength="37" x="526.75" y="28.7285">World</text><line style="stroke:#181818;stroke-width:0.5;" x1="399" x2="659" y1="39" y2="39"/><rect fill="none" height="6" style="stroke:#C82930;stroke-width:1.0;" width="6" x="406" y="50.3047"/><text fill="#000000" font-family="sans-serif" font-size="14" lengthAdjust="spacing" textLength="79" x="418" y="57.5332">scenes : dict</text><rect fill="none" height="6" style="stroke:#C82930;stroke-width:1.0;" width="6" x="406" y="67.9141"/><text fill="#000000" font-family="sans-serif" font-size="14" lengthAdjust="spacing" textLength="129" x="418" y="75.1426">activeScene : Scene</text><line style="stroke:#181818;stroke-width:0.5;" x1="399" x2="659" y1="82.2188" y2="82.2188"/><ellipse cx="409" cy="96.5234" fill="#84BE84" rx="3" ry="3" style="stroke:#038048;stroke-width:1.0;"/><text fill="#000000" font-family="sans-serif" font-size="14" lengthAdjust="spacing" textLength="234" x="418" y="100.752">AddScene(sceneName, scene) : bool</text><ellipse cx="409" cy="114.1328" fill="#84BE84" rx="3" ry="3" style="stroke:#038048;stroke-width:1.0;"/><text fill="#000000" font-family="sans-serif" font-size="14" lengthAdjust="spacing" textLength="215" x="418" y="118.3613">RemoveScene(sceneName) : bool</text><ellipse cx="409" cy="131.7422" fill="#84BE84" rx="3" ry="3" style="stroke:#038048;stroke-width:1.0;"/><text fill="#000000" font-family="sans-serif" font-size="14" lengthAdjust="spacing" textLength="222" x="418" y="135.9707">SetActiveScene(sceneName) : bool</text><ellipse cx="409" cy="149.3516" fill="#84BE84" rx="3" ry="3" style="stroke:#038048;stroke-width:1.0;"/><text fill="#000000" font-family="sans-serif" font-size="14" lengthAdjust="spacing" textLength="118" x="418" y="153.5801">StartActiveScene()</text><ellipse cx="409" cy="166.9609" fill="#84BE84" rx="3" ry="3" style="stroke:#038048;stroke-width:1.0;"/><text fill="#000000" font-family="sans-serif" font-size="14" lengthAdjust="spacing" textLength="236" x="418" y="171.1895">UpdateActiveScene(deltaTime=None)</text></g><!--class Scene--><g id="elem_Scene"><rect codeLine="28" fill="#F1F1F1" height="171.2656" id="Scene" rx="2.5" ry="2.5" style="stroke:#181818;stroke-width:0.5;" width="307" x="375.5" y="228"/><ellipse cx="504.75" cy="244" fill="#ADD1B2" rx="11" ry="11" style="stroke:#181818;stroke-width:1.0;"/><path d="M507.5156,239.875 Q507.6719,239.6563 507.8594,239.5469 Q508.0469,239.4375 508.2656,239.4375 Q508.6406,239.4375 508.875,239.6953 Q509.1094,239.9531 509.1094,240.5625 L509.1094,242.0156 Q509.1094,242.625 508.875,242.8906 Q508.6406,243.1563 508.2656,243.1563 Q507.9219,243.1563 507.7188,242.9531 Q507.5156,242.7656 507.4063,242.25 Q507.3594,241.8906 507.1719,241.7031 Q506.8438,241.3281 506.2344,241.1094 Q505.625,240.8906 505,240.8906 Q504.2344,240.8906 503.6016,241.2188 Q502.9688,241.5469 502.4766,242.2969 Q501.9844,243.0469 501.9844,244.0781 L501.9844,245.1719 Q501.9844,246.4063 502.875,247.2266 Q503.7656,248.0469 505.3594,248.0469 Q506.2969,248.0469 506.9531,247.7969 Q507.3438,247.6406 507.7656,247.2031 Q508.0313,246.9375 508.1797,246.8594 Q508.3281,246.7813 508.5313,246.7813 Q508.8594,246.7813 509.1172,247.0391 Q509.375,247.2969 509.375,247.6406 Q509.375,247.9844 509.0313,248.3906 Q508.5313,248.9688 507.7344,249.2969 Q506.6563,249.75 505.3594,249.75 Q503.8438,249.75 502.6406,249.125 Q501.6563,248.625 500.9688,247.5547 Q500.2813,246.4844 500.2813,245.2031 L500.2813,244.0469 Q500.2813,242.7188 500.8984,241.5703 Q501.5156,240.4219 502.6094,239.8047 Q503.7031,239.1875 504.9375,239.1875 Q505.6719,239.1875 506.3203,239.3516 Q506.9688,239.5156 507.5156,239.875 Z " fill="#000000"/><text fill="#000000" font-family="sans-serif" font-size="14" lengthAdjust="spacing" textLength="40" x="525.25" y="249.7285">Scene</text><line style="stroke:#181818;stroke-width:0.5;" x1="376.5" x2="681.5" y1="260" y2="260"/><rect fill="none" height="6" style="stroke:#C82930;stroke-width:1.0;" width="6" x="383.5" y="271.3047"/><text fill="#000000" font-family="sans-serif" font-size="14" lengthAdjust="spacing" textLength="112" x="395.5" y="278.5332">gameObjects : list</text><line style="stroke:#181818;stroke-width:0.5;" x1="376.5" x2="681.5" y1="285.6094" y2="285.6094"/><ellipse cx="386.5" cy="299.9141" fill="#84BE84" rx="3" ry="3" style="stroke:#038048;stroke-width:1.0;"/><text fill="#000000" font-family="sans-serif" font-size="14" lengthAdjust="spacing" textLength="229" x="395.5" y="304.1426">AddGameObject(gameObject) : bool</text><ellipse cx="386.5" cy="317.5234" fill="#84BE84" rx="3" ry="3" style="stroke:#038048;stroke-width:1.0;"/><text fill="#000000" font-family="sans-serif" font-size="14" lengthAdjust="spacing" textLength="256" x="395.5" y="321.752">RemoveGameObject(gameObject) : bool</text><ellipse cx="386.5" cy="335.1328" fill="#84BE84" rx="3" ry="3" style="stroke:#038048;stroke-width:1.0;"/><text fill="#000000" font-family="sans-serif" font-size="14" lengthAdjust="spacing" textLength="80" x="395.5" y="339.3613">StartScene()</text><ellipse cx="386.5" cy="352.7422" fill="#84BE84" rx="3" ry="3" style="stroke:#038048;stroke-width:1.0;"/><text fill="#000000" font-family="sans-serif" font-size="14" lengthAdjust="spacing" textLength="157" x="395.5" y="356.9707">UpdateScene(deltaTime)</text><ellipse cx="386.5" cy="370.3516" fill="#84BE84" rx="3" ry="3" style="stroke:#038048;stroke-width:1.0;"/><text fill="#000000" font-family="sans-serif" font-size="14" lengthAdjust="spacing" textLength="212" x="395.5" y="374.5801">GetComponents(compName) : list</text><ellipse cx="386.5" cy="387.9609" fill="#84BE84" rx="3" ry="3" style="stroke:#038048;stroke-width:1.0;"/><text fill="#000000" font-family="sans-serif" font-size="14" lengthAdjust="spacing" textLength="281" x="395.5" y="392.1895">GetObjectsWithComponent(compName) : list</text></g><!--class GameObject--><g id="elem_GameObject"><rect codeLine="38" fill="#F1F1F1" height="241.7031" id="GameObject" rx="2.5" ry="2.5" style="stroke:#181818;stroke-width:0.5;" width="355" x="351.5" y="457.5"/><ellipse cx="485.25" cy="473.5" fill="#ADD1B2" rx="11" ry="11" style="stroke:#181818;stroke-width:1.0;"/><path d="M488.0156,469.375 Q488.1719,469.1563 488.3594,469.0469 Q488.5469,468.9375 488.7656,468.9375 Q489.1406,468.9375 489.375,469.1953 Q489.6094,469.4531 489.6094,470.0625 L489.6094,471.5156 Q489.6094,472.125 489.375,472.3906 Q489.1406,472.6563 488.7656,472.6563 Q488.4219,472.6563 488.2188,472.4531 Q488.0156,472.2656 487.9063,471.75 Q487.8594,471.3906 487.6719,471.2031 Q487.3438,470.8281 486.7344,470.6094 Q486.125,470.3906 485.5,470.3906 Q484.7344,470.3906 484.1016,470.7188 Q483.4688,471.0469 482.9766,471.7969 Q482.4844,472.5469 482.4844,473.5781 L482.4844,474.6719 Q482.4844,475.9063 483.375,476.7266 Q484.2656,477.5469 485.8594,477.5469 Q486.7969,477.5469 487.4531,477.2969 Q487.8438,477.1406 488.2656,476.7031 Q488.5313,476.4375 488.6797,476.3594 Q488.8281,476.2813 489.0313,476.2813 Q489.3594,476.2813 489.6172,476.5391 Q489.875,476.7969 489.875,477.1406 Q489.875,477.4844 489.5313,477.8906 Q489.0313,478.4688 488.2344,478.7969 Q487.1563,479.25 485.8594,479.25 Q484.3438,479.25 483.1406,478.625 Q482.1563,478.125 481.4688,477.0547 Q480.7813,475.9844 480.7813,474.7031 L480.7813,473.5469 Q480.7813,472.2188 481.3984,471.0703 Q482.0156,469.9219 483.1094,469.3047 Q484.2031,468.6875 485.4375,468.6875 Q486.1719,468.6875 486.8203,468.8516 Q487.4688,469.0156 488.0156,469.375 Z " fill="#000000"/><text fill="#000000" font-family="sans-serif" font-size="14" lengthAdjust="spacing" textLength="79" x="505.75" y="479.2285">GameObject</text><line style="stroke:#181818;stroke-width:0.5;" x1="352.5" x2="705.5" y1="489.5" y2="489.5"/><rect fill="none" height="6" style="stroke:#C82930;stroke-width:1.0;" width="6" x="359.5" y="500.8047"/><text fill="#000000" font-family="sans-serif" font-size="14" lengthAdjust="spacing" textLength="38" x="371.5" y="508.0332">id : int</text><rect fill="none" height="6" style="stroke:#C82930;stroke-width:1.0;" width="6" x="359.5" y="518.4141"/><text fill="#000000" font-family="sans-serif" font-size="14" lengthAdjust="spacing" textLength="111" x="371.5" y="525.6426">components : dict</text><line style="stroke:#181818;stroke-width:0.5;" x1="352.5" x2="705.5" y1="532.7188" y2="532.7188"/><ellipse cx="362.5" cy="547.0234" fill="#84BE84" rx="3" ry="3" style="stroke:#038048;stroke-width:1.0;"/><text fill="#000000" font-family="sans-serif" font-size="14" lengthAdjust="spacing" textLength="73" x="371.5" y="551.252">GetID() : int</text><ellipse cx="362.5" cy="564.6328" fill="#84BE84" rx="3" ry="3" style="stroke:#038048;stroke-width:1.0;"/><text fill="#000000" font-family="sans-serif" font-size="14" lengthAdjust="spacing" textLength="302" x="371.5" y="568.8613">AddComponent(component : Component) : bool</text><ellipse cx="362.5" cy="582.2422" fill="#84BE84" rx="3" ry="3" style="stroke:#038048;stroke-width:1.0;"/><text fill="#000000" font-family="sans-serif" font-size="14" lengthAdjust="spacing" textLength="329" x="371.5" y="586.4707">RemoveComponent(component : Component) : bool</text><ellipse cx="362.5" cy="599.8516" fill="#84BE84" rx="3" ry="3" style="stroke:#038048;stroke-width:1.0;"/><text fill="#000000" font-family="sans-serif" font-size="14" lengthAdjust="spacing" textLength="261" x="371.5" y="604.0801">GetComponent(compName) : Component</text><ellipse cx="362.5" cy="617.4609" fill="#84BE84" rx="3" ry="3" style="stroke:#038048;stroke-width:1.0;"/><text fill="#000000" font-family="sans-serif" font-size="14" lengthAdjust="spacing" textLength="40" x="371.5" y="621.6895">Start()</text><ellipse cx="362.5" cy="635.0703" fill="#84BE84" rx="3" ry="3" style="stroke:#038048;stroke-width:1.0;"/><text fill="#000000" font-family="sans-serif" font-size="14" lengthAdjust="spacing" textLength="117" x="371.5" y="639.2988">Update(deltaTime)</text><ellipse cx="362.5" cy="652.6797" fill="#84BE84" rx="3" ry="3" style="stroke:#038048;stroke-width:1.0;"/><text fill="#000000" font-family="sans-serif" font-size="14" lengthAdjust="spacing" textLength="254" x="371.5" y="656.9082">UpdateCollider(deltaTime, colliders : list)</text><ellipse cx="362.5" cy="670.2891" fill="#84BE84" rx="3" ry="3" style="stroke:#038048;stroke-width:1.0;"/><text fill="#000000" font-family="sans-serif" font-size="14" lengthAdjust="spacing" textLength="235" x="371.5" y="674.5176">UpdatePhysics(deltaTime, mode : int)</text><ellipse cx="362.5" cy="687.8984" fill="#84BE84" rx="3" ry="3" style="stroke:#038048;stroke-width:1.0;"/><text fill="#000000" font-family="sans-serif" font-size="14" lengthAdjust="spacing" textLength="232" x="371.5" y="692.127">UpdateOnCollision(collider : Collider)</text></g><!--class Component--><g id="elem_Component"><rect codeLine="52" fill="#F1F1F1" height="136.0469" id="Component" rx="2.5" ry="2.5" style="stroke:#181818;stroke-width:0.5;" width="213" x="422.5" y="758"/><ellipse cx="488.25" cy="774" fill="#ADD1B2" rx="11" ry="11" style="stroke:#181818;stroke-width:1.0;"/><path d="M491.0156,769.875 Q491.1719,769.6563 491.3594,769.5469 Q491.5469,769.4375 491.7656,769.4375 Q492.1406,769.4375 492.375,769.6953 Q492.6094,769.9531 492.6094,770.5625 L492.6094,772.0156 Q492.6094,772.625 492.375,772.8906 Q492.1406,773.1563 491.7656,773.1563 Q491.4219,773.1563 491.2188,772.9531 Q491.0156,772.7656 490.9063,772.25 Q490.8594,771.8906 490.6719,771.7031 Q490.3438,771.3281 489.7344,771.1094 Q489.125,770.8906 488.5,770.8906 Q487.7344,770.8906 487.1016,771.2188 Q486.4688,771.5469 485.9766,772.2969 Q485.4844,773.0469 485.4844,774.0781 L485.4844,775.1719 Q485.4844,776.4063 486.375,777.2266 Q487.2656,778.0469 488.8594,778.0469 Q489.7969,778.0469 490.4531,777.7969 Q490.8438,777.6406 491.2656,777.2031 Q491.5313,776.9375 491.6797,776.8594 Q491.8281,776.7813 492.0313,776.7813 Q492.3594,776.7813 492.6172,777.0391 Q492.875,777.2969 492.875,777.6406 Q492.875,777.9844 492.5313,778.3906 Q492.0313,778.9688 491.2344,779.2969 Q490.1563,779.75 488.8594,779.75 Q487.3438,779.75 486.1406,779.125 Q485.1563,778.625 484.4688,777.5547 Q483.7813,776.4844 483.7813,775.2031 L483.7813,774.0469 Q483.7813,772.7188 484.3984,771.5703 Q485.0156,770.4219 486.1094,769.8047 Q487.2031,769.1875 488.4375,769.1875 Q489.1719,769.1875 489.8203,769.3516 Q490.4688,769.5156 491.0156,769.875 Z " fill="#000000"/><text fill="#000000" font-family="sans-serif" font-size="14" lengthAdjust="spacing" textLength="73" x="508.75" y="779.7285">Component</text><line style="stroke:#181818;stroke-width:0.5;" x1="423.5" x2="634.5" y1="790" y2="790"/><ellipse cx="433.5" cy="804.3047" fill="none" rx="3" ry="3" style="stroke:#038048;stroke-width:1.0;"/><text fill="#000000" font-family="sans-serif" font-size="14" lengthAdjust="spacing" textLength="82" x="442.5" y="808.5332">name : string</text><ellipse cx="433.5" cy="821.9141" fill="none" rx="3" ry="3" style="stroke:#038048;stroke-width:1.0;"/><text fill="#000000" font-family="sans-serif" font-size="14" lengthAdjust="spacing" textLength="132" x="442.5" y="826.1426">parent : GameObject</text><line style="stroke:#181818;stroke-width:0.5;" x1="423.5" x2="634.5" y1="833.2188" y2="833.2188"/><ellipse cx="433.5" cy="847.5234" fill="#84BE84" rx="3" ry="3" style="stroke:#038048;stroke-width:1.0;"/><text fill="#000000" font-family="sans-serif" font-size="14" lengthAdjust="spacing" textLength="40" x="442.5" y="851.752">Start()</text><ellipse cx="433.5" cy="865.1328" fill="#84BE84" rx="3" ry="3" style="stroke:#038048;stroke-width:1.0;"/><text fill="#000000" font-family="sans-serif" font-size="14" lengthAdjust="spacing" textLength="117" x="442.5" y="869.3613">Update(deltaTime)</text><ellipse cx="433.5" cy="882.7422" fill="#84BE84" rx="3" ry="3" style="stroke:#038048;stroke-width:1.0;"/><text fill="#000000" font-family="sans-serif" font-size="14" lengthAdjust="spacing" textLength="187" x="442.5" y="886.9707">OnCollision(collider : Collider)</text></g><!--class Collider--><g id="elem_Collider"><rect codeLine="60" fill="#F1F1F1" height="153.6563" id="Collider" rx="2.5" ry="2.5" style="stroke:#181818;stroke-width:0.5;" width="216" x="66" y="996.5"/><ellipse cx="145.75" cy="1012.5" fill="#ADD1B2" rx="11" ry="11" style="stroke:#181818;stroke-width:1.0;"/><path d="M148.5156,1008.375 Q148.6719,1008.1563 148.8594,1008.0469 Q149.0469,1007.9375 149.2656,1007.9375 Q149.6406,1007.9375 149.875,1008.1953 Q150.1094,1008.4531 150.1094,1009.0625 L150.1094,1010.5156 Q150.1094,1011.125 149.875,1011.3906 Q149.6406,1011.6563 149.2656,1011.6563 Q148.9219,1011.6563 148.7188,1011.4531 Q148.5156,1011.2656 148.4063,1010.75 Q148.3594,1010.3906 148.1719,1010.2031 Q147.8438,1009.8281 147.2344,1009.6094 Q146.625,1009.3906 146,1009.3906 Q145.2344,1009.3906 144.6016,1009.7188 Q143.9688,1010.0469 143.4766,1010.7969 Q142.9844,1011.5469 142.9844,1012.5781 L142.9844,1013.6719 Q142.9844,1014.9063 143.875,1015.7266 Q144.7656,1016.5469 146.3594,1016.5469 Q147.2969,1016.5469 147.9531,1016.2969 Q148.3438,1016.1406 148.7656,1015.7031 Q149.0313,1015.4375 149.1797,1015.3594 Q149.3281,1015.2813 149.5313,1015.2813 Q149.8594,1015.2813 150.1172,1015.5391 Q150.375,1015.7969 150.375,1016.1406 Q150.375,1016.4844 150.0313,1016.8906 Q149.5313,1017.4688 148.7344,1017.7969 Q147.6563,1018.25 146.3594,1018.25 Q144.8438,1018.25 143.6406,1017.625 Q142.6563,1017.125 141.9688,1016.0547 Q141.2813,1014.9844 141.2813,1013.7031 L141.2813,1012.5469 Q141.2813,1011.2188 141.8984,1010.0703 Q142.5156,1008.9219 143.6094,1008.3047 Q144.7031,1007.6875 145.9375,1007.6875 Q146.6719,1007.6875 147.3203,1007.8516 Q147.9688,1008.0156 148.5156,1008.375 Z " fill="#000000"/><text fill="#000000" font-family="sans-serif" font-size="14" lengthAdjust="spacing" textLength="48" x="166.25" y="1018.2285">Collider</text><line style="stroke:#181818;stroke-width:0.5;" x1="67" x2="281" y1="1028.5" y2="1028.5"/><ellipse cx="77" cy="1042.8047" fill="none" rx="3" ry="3" style="stroke:#038048;stroke-width:1.0;"/><text fill="#000000" font-family="sans-serif" font-size="14" lengthAdjust="spacing" textLength="79" x="86" y="1047.0332">collision : list</text><line style="stroke:#181818;stroke-width:0.5;" x1="67" x2="281" y1="1054.1094" y2="1054.1094"/><ellipse cx="77" cy="1068.4141" fill="#84BE84" rx="3" ry="3" style="stroke:#038048;stroke-width:1.0;"/><text fill="#000000" font-family="sans-serif" font-size="14" lengthAdjust="spacing" textLength="104" x="86" y="1072.6426">DisplayCollider()</text><ellipse cx="77" cy="1086.0234" fill="#84BE84" rx="3" ry="3" style="stroke:#038048;stroke-width:1.0;"/><text fill="#000000" font-family="sans-serif" font-size="14" lengthAdjust="spacing" textLength="173" x="86" y="1090.252">Update(deltaTime,colliders)</text><polygon fill="#FFFF44" points="77,1098.6328,81,1102.6328,77,1106.6328,73,1102.6328" style="stroke:#B38D22;stroke-width:1.0;"/><text fill="#000000" font-family="sans-serif" font-size="14" lengthAdjust="spacing" textLength="127" x="86" y="1107.8613">UpdateOnCollision()</text><ellipse cx="77" cy="1130.0469" fill="#84BE84" rx="3" ry="3" style="stroke:#038048;stroke-width:1.0;"/><text fill="#000000" font-family="sans-serif" font-size="14" lengthAdjust="spacing" textLength="190" x="86" y="1125.4707">SqDistancePointSegment(sqD</text><text fill="#000000" font-family="sans-serif" font-size="14" lengthAdjust="spacing" textLength="181" x="90" y="1143.0801">: float, onLine : bool, A, B, P)</text></g><!--class ColliderRect--><g id="elem_ColliderRect"><rect codeLine="69" fill="#F1F1F1" height="188.875" id="ColliderRect" rx="2.5" ry="2.5" style="stroke:#181818;stroke-width:0.5;" width="150" x="192" y="1253"/><ellipse cx="225.45" cy="1269" fill="#ADD1B2" rx="11" ry="11" style="stroke:#181818;stroke-width:1.0;"/><path d="M228.2156,1264.875 Q228.3719,1264.6563 228.5594,1264.5469 Q228.7469,1264.4375 228.9656,1264.4375 Q229.3406,1264.4375 229.575,1264.6953 Q229.8094,1264.9531 229.8094,1265.5625 L229.8094,1267.0156 Q229.8094,1267.625 229.575,1267.8906 Q229.3406,1268.1563 228.9656,1268.1563 Q228.6219,1268.1563 228.4188,1267.9531 Q228.2156,1267.7656 228.1063,1267.25 Q228.0594,1266.8906 227.8719,1266.7031 Q227.5438,1266.3281 226.9344,1266.1094 Q226.325,1265.8906 225.7,1265.8906 Q224.9344,1265.8906 224.3016,1266.2188 Q223.6688,1266.5469 223.1766,1267.2969 Q222.6844,1268.0469 222.6844,1269.0781 L222.6844,1270.1719 Q222.6844,1271.4063 223.575,1272.2266 Q224.4656,1273.0469 226.0594,1273.0469 Q226.9969,1273.0469 227.6531,1272.7969 Q228.0438,1272.6406 228.4656,1272.2031 Q228.7313,1271.9375 228.8797,1271.8594 Q229.0281,1271.7813 229.2313,1271.7813 Q229.5594,1271.7813 229.8172,1272.0391 Q230.075,1272.2969 230.075,1272.6406 Q230.075,1272.9844 229.7313,1273.3906 Q229.2313,1273.9688 228.4344,1274.2969 Q227.3563,1274.75 226.0594,1274.75 Q224.5438,1274.75 223.3406,1274.125 Q222.3563,1273.625 221.6688,1272.5547 Q220.9813,1271.4844 220.9813,1270.2031 L220.9813,1269.0469 Q220.9813,1267.7188 221.5984,1266.5703 Q222.2156,1265.4219 223.3094,1264.8047 Q224.4031,1264.1875 225.6375,1264.1875 Q226.3719,1264.1875 227.0203,1264.3516 Q227.6688,1264.5156 228.2156,1264.875 Z " fill="#000000"/><text fill="#000000" font-family="sans-serif" font-size="14" lengthAdjust="spacing" textLength="77" x="243.55" y="1274.7285">ColliderRect</text><line style="stroke:#181818;stroke-width:0.5;" x1="193" x2="341" y1="1285" y2="1285"/><ellipse cx="203" cy="1299.3047" fill="none" rx="3" ry="3" style="stroke:#038048;stroke-width:1.0;"/><text fill="#000000" font-family="sans-serif" font-size="14" lengthAdjust="spacing" textLength="124" x="212" y="1303.5332">colliderType : string</text><ellipse cx="203" cy="1316.9141" fill="none" rx="3" ry="3" style="stroke:#038048;stroke-width:1.0;"/><text fill="#000000" font-family="sans-serif" font-size="14" lengthAdjust="spacing" textLength="123" x="212" y="1321.1426">localPosition : Vec2</text><ellipse cx="203" cy="1334.5234" fill="none" rx="3" ry="3" style="stroke:#038048;stroke-width:1.0;"/><text fill="#000000" font-family="sans-serif" font-size="14" lengthAdjust="spacing" textLength="121" x="212" y="1338.752">localRotation : float</text><ellipse cx="203" cy="1352.1328" fill="none" rx="3" ry="3" style="stroke:#038048;stroke-width:1.0;"/><text fill="#000000" font-family="sans-serif" font-size="14" lengthAdjust="spacing" textLength="103" x="212" y="1356.3613">localScale : float</text><ellipse cx="203" cy="1369.7422" fill="none" rx="3" ry="3" style="stroke:#038048;stroke-width:1.0;"/><text fill="#000000" font-family="sans-serif" font-size="14" lengthAdjust="spacing" textLength="66" x="212" y="1373.9707">lenX : float</text><ellipse cx="203" cy="1387.3516" fill="none" rx="3" ry="3" style="stroke:#038048;stroke-width:1.0;"/><text fill="#000000" font-family="sans-serif" font-size="14" lengthAdjust="spacing" textLength="67" x="212" y="1391.5801">lenY : float</text><ellipse cx="203" cy="1404.9609" fill="none" rx="3" ry="3" style="stroke:#038048;stroke-width:1.0;"/><text fill="#000000" font-family="sans-serif" font-size="14" lengthAdjust="spacing" textLength="98" x="212" y="1409.1895">sqRadius : float</text><line style="stroke:#181818;stroke-width:0.5;" x1="193" x2="341" y1="1416.2656" y2="1416.2656"/><ellipse cx="203" cy="1430.5703" fill="#84BE84" rx="3" ry="3" style="stroke:#038048;stroke-width:1.0;"/><text fill="#000000" font-family="sans-serif" font-size="14" lengthAdjust="spacing" textLength="79" x="212" y="1434.7988">SetCollider()</text></g><!--class ColliderCircle--><g id="elem_ColliderCircle"><rect codeLine="80" fill="#F1F1F1" height="171.2656" id="ColliderCircle" rx="2.5" ry="2.5" style="stroke:#181818;stroke-width:0.5;" width="150" x="7" y="1262"/><ellipse cx="37.3" cy="1278" fill="#ADD1B2" rx="11" ry="11" style="stroke:#181818;stroke-width:1.0;"/><path d="M40.0656,1273.875 Q40.2219,1273.6563 40.4094,1273.5469 Q40.5969,1273.4375 40.8156,1273.4375 Q41.1906,1273.4375 41.425,1273.6953 Q41.6594,1273.9531 41.6594,1274.5625 L41.6594,1276.0156 Q41.6594,1276.625 41.425,1276.8906 Q41.1906,1277.1563 40.8156,1277.1563 Q40.4719,1277.1563 40.2688,1276.9531 Q40.0656,1276.7656 39.9563,1276.25 Q39.9094,1275.8906 39.7219,1275.7031 Q39.3938,1275.3281 38.7844,1275.1094 Q38.175,1274.8906 37.55,1274.8906 Q36.7844,1274.8906 36.1516,1275.2188 Q35.5188,1275.5469 35.0266,1276.2969 Q34.5344,1277.0469 34.5344,1278.0781 L34.5344,1279.1719 Q34.5344,1280.4063 35.425,1281.2266 Q36.3156,1282.0469 37.9094,1282.0469 Q38.8469,1282.0469 39.5031,1281.7969 Q39.8938,1281.6406 40.3156,1281.2031 Q40.5813,1280.9375 40.7297,1280.8594 Q40.8781,1280.7813 41.0813,1280.7813 Q41.4094,1280.7813 41.6672,1281.0391 Q41.925,1281.2969 41.925,1281.6406 Q41.925,1281.9844 41.5813,1282.3906 Q41.0813,1282.9688 40.2844,1283.2969 Q39.2063,1283.75 37.9094,1283.75 Q36.3938,1283.75 35.1906,1283.125 Q34.2063,1282.625 33.5188,1281.5547 Q32.8313,1280.4844 32.8313,1279.2031 L32.8313,1278.0469 Q32.8313,1276.7188 33.4484,1275.5703 Q34.0656,1274.4219 35.1594,1273.8047 Q36.2531,1273.1875 37.4875,1273.1875 Q38.2219,1273.1875 38.8703,1273.3516 Q39.5188,1273.5156 40.0656,1273.875 Z " fill="#000000"/><text fill="#000000" font-family="sans-serif" font-size="14" lengthAdjust="spacing" textLength="84" x="54.7" y="1283.7285">ColliderCircle</text><line style="stroke:#181818;stroke-width:0.5;" x1="8" x2="156" y1="1294" y2="1294"/><ellipse cx="18" cy="1308.3047" fill="none" rx="3" ry="3" style="stroke:#038048;stroke-width:1.0;"/><text fill="#000000" font-family="sans-serif" font-size="14" lengthAdjust="spacing" textLength="124" x="27" y="1312.5332">colliderType : string</text><ellipse cx="18" cy="1325.9141" fill="none" rx="3" ry="3" style="stroke:#038048;stroke-width:1.0;"/><text fill="#000000" font-family="sans-serif" font-size="14" lengthAdjust="spacing" textLength="123" x="27" y="1330.1426">localPosition : Vec2</text><ellipse cx="18" cy="1343.5234" fill="none" rx="3" ry="3" style="stroke:#038048;stroke-width:1.0;"/><text fill="#000000" font-family="sans-serif" font-size="14" lengthAdjust="spacing" textLength="121" x="27" y="1347.752">localRotation : float</text><ellipse cx="18" cy="1361.1328" fill="none" rx="3" ry="3" style="stroke:#038048;stroke-width:1.0;"/><text fill="#000000" font-family="sans-serif" font-size="14" lengthAdjust="spacing" textLength="103" x="27" y="1365.3613">localScale : float</text><ellipse cx="18" cy="1378.7422" fill="none" rx="3" ry="3" style="stroke:#038048;stroke-width:1.0;"/><text fill="#000000" font-family="sans-serif" font-size="14" lengthAdjust="spacing" textLength="78" x="27" y="1382.9707">radius : float</text><ellipse cx="18" cy="1396.3516" fill="none" rx="3" ry="3" style="stroke:#038048;stroke-width:1.0;"/><text fill="#000000" font-family="sans-serif" font-size="14" lengthAdjust="spacing" textLength="98" x="27" y="1400.5801">sqRadius : float</text><line style="stroke:#181818;stroke-width:0.5;" x1="8" x2="156" y1="1407.6563" y2="1407.6563"/><ellipse cx="18" cy="1421.9609" fill="#84BE84" rx="3" ry="3" style="stroke:#038048;stroke-width:1.0;"/><text fill="#000000" font-family="sans-serif" font-size="14" lengthAdjust="spacing" textLength="79" x="27" y="1426.1895">SetCollider()</text></g><!--class Physics--><g id="elem_Physics"><rect codeLine="91" fill="#F1F1F1" height="259.3125" id="Physics" rx="2.5" ry="2.5" style="stroke:#181818;stroke-width:0.5;" width="213" x="317.5" y="944"/><ellipse cx="395.75" cy="960" fill="#ADD1B2" rx="11" ry="11" style="stroke:#181818;stroke-width:1.0;"/><path d="M398.5156,955.875 Q398.6719,955.6563 398.8594,955.5469 Q399.0469,955.4375 399.2656,955.4375 Q399.6406,955.4375 399.875,955.6953 Q400.1094,955.9531 400.1094,956.5625 L400.1094,958.0156 Q400.1094,958.625 399.875,958.8906 Q399.6406,959.1563 399.2656,959.1563 Q398.9219,959.1563 398.7188,958.9531 Q398.5156,958.7656 398.4063,958.25 Q398.3594,957.8906 398.1719,957.7031 Q397.8438,957.3281 397.2344,957.1094 Q396.625,956.8906 396,956.8906 Q395.2344,956.8906 394.6016,957.2188 Q393.9688,957.5469 393.4766,958.2969 Q392.9844,959.0469 392.9844,960.0781 L392.9844,961.1719 Q392.9844,962.4063 393.875,963.2266 Q394.7656,964.0469 396.3594,964.0469 Q397.2969,964.0469 397.9531,963.7969 Q398.3438,963.6406 398.7656,963.2031 Q399.0313,962.9375 399.1797,962.8594 Q399.3281,962.7813 399.5313,962.7813 Q399.8594,962.7813 400.1172,963.0391 Q400.375,963.2969 400.375,963.6406 Q400.375,963.9844 400.0313,964.3906 Q399.5313,964.9688 398.7344,965.2969 Q397.6563,965.75 396.3594,965.75 Q394.8438,965.75 393.6406,965.125 Q392.6563,964.625 391.9688,963.5547 Q391.2813,962.4844 391.2813,961.2031 L391.2813,960.0469 Q391.2813,958.7188 391.8984,957.5703 Q392.5156,956.4219 393.6094,955.8047 Q394.7031,955.1875 395.9375,955.1875 Q396.6719,955.1875 397.3203,955.3516 Q397.9688,955.5156 398.5156,955.875 Z " fill="#000000"/><text fill="#000000" font-family="sans-serif" font-size="14" lengthAdjust="spacing" textLength="48" x="416.25" y="965.7285">Physics</text><line style="stroke:#181818;stroke-width:0.5;" x1="318.5" x2="529.5" y1="976" y2="976"/><ellipse cx="328.5" cy="990.3047" fill="none" rx="3" ry="3" style="stroke:#038048;stroke-width:1.0;"/><text fill="#000000" font-family="sans-serif" font-size="14" lengthAdjust="spacing" textLength="72" x="337.5" y="994.5332">mass : float</text><ellipse cx="328.5" cy="1007.9141" fill="none" rx="3" ry="3" style="stroke:#038048;stroke-width:1.0;"/><text fill="#000000" font-family="sans-serif" font-size="14" lengthAdjust="spacing" textLength="139" x="337.5" y="1012.1426">momentOfInertia: float</text><ellipse cx="328.5" cy="1025.5234" fill="none" rx="3" ry="3" style="stroke:#038048;stroke-width:1.0;"/><text fill="#000000" font-family="sans-serif" font-size="14" lengthAdjust="spacing" textLength="101" x="337.5" y="1029.752">restitution : float</text><ellipse cx="328.5" cy="1043.1328" fill="none" rx="3" ry="3" style="stroke:#038048;stroke-width:1.0;"/><text fill="#000000" font-family="sans-serif" font-size="14" lengthAdjust="spacing" textLength="91" x="337.5" y="1047.3613">velocity : Vec2</text><ellipse cx="328.5" cy="1060.7422" fill="none" rx="3" ry="3" style="stroke:#038048;stroke-width:1.0;"/><text fill="#000000" font-family="sans-serif" font-size="14" lengthAdjust="spacing" textLength="121" x="337.5" y="1064.9707">acceleration : Vec2</text><ellipse cx="328.5" cy="1078.3516" fill="none" rx="3" ry="3" style="stroke:#038048;stroke-width:1.0;"/><text fill="#000000" font-family="sans-serif" font-size="14" lengthAdjust="spacing" textLength="128" x="337.5" y="1082.5801">angularSpeed : float</text><ellipse cx="328.5" cy="1095.9609" fill="none" rx="3" ry="3" style="stroke:#038048;stroke-width:1.0;"/><text fill="#000000" font-family="sans-serif" font-size="14" lengthAdjust="spacing" textLength="110" x="337.5" y="1100.1895">angularAcc : float</text><ellipse cx="328.5" cy="1113.5703" fill="none" rx="3" ry="3" style="stroke:#038048;stroke-width:1.0;"/><text fill="#000000" font-family="sans-serif" font-size="14" lengthAdjust="spacing" textLength="151" x="337.5" y="1117.7988">constraintPosition : bool</text><ellipse cx="328.5" cy="1131.1797" fill="none" rx="3" ry="3" style="stroke:#038048;stroke-width:1.0;"/><text fill="#000000" font-family="sans-serif" font-size="14" lengthAdjust="spacing" textLength="154" x="337.5" y="1135.4082">constraintRotation : bool</text><line style="stroke:#181818;stroke-width:0.5;" x1="318.5" x2="529.5" y1="1142.4844" y2="1142.4844"/><ellipse cx="328.5" cy="1156.7891" fill="#84BE84" rx="3" ry="3" style="stroke:#038048;stroke-width:1.0;"/><text fill="#000000" font-family="sans-serif" font-size="14" lengthAdjust="spacing" textLength="187" x="337.5" y="1161.0176">Update(deltaTime, mode : int)</text><ellipse cx="328.5" cy="1174.3984" fill="#84BE84" rx="3" ry="3" style="stroke:#038048;stroke-width:1.0;"/><text fill="#000000" font-family="sans-serif" font-size="14" lengthAdjust="spacing" textLength="148" x="337.5" y="1178.627">AddForce(force : Vec2)</text><ellipse cx="328.5" cy="1192.0078" fill="#84BE84" rx="3" ry="3" style="stroke:#038048;stroke-width:1.0;"/><text fill="#000000" font-family="sans-serif" font-size="14" lengthAdjust="spacing" textLength="161" x="337.5" y="1196.2363">AddTorque(torque : float)</text></g><!--class Sprite--><g id="elem_Sprite"><rect codeLine="106" fill="#F1F1F1" height="83.2188" id="Sprite" rx="2.5" ry="2.5" style="stroke:#181818;stroke-width:0.5;" width="138" x="566" y="1032"/><ellipse cx="612.25" cy="1048" fill="#ADD1B2" rx="11" ry="11" style="stroke:#181818;stroke-width:1.0;"/><path d="M615.0156,1043.875 Q615.1719,1043.6563 615.3594,1043.5469 Q615.5469,1043.4375 615.7656,1043.4375 Q616.1406,1043.4375 616.375,1043.6953 Q616.6094,1043.9531 616.6094,1044.5625 L616.6094,1046.0156 Q616.6094,1046.625 616.375,1046.8906 Q616.1406,1047.1563 615.7656,1047.1563 Q615.4219,1047.1563 615.2188,1046.9531 Q615.0156,1046.7656 614.9063,1046.25 Q614.8594,1045.8906 614.6719,1045.7031 Q614.3438,1045.3281 613.7344,1045.1094 Q613.125,1044.8906 612.5,1044.8906 Q611.7344,1044.8906 611.1016,1045.2188 Q610.4688,1045.5469 609.9766,1046.2969 Q609.4844,1047.0469 609.4844,1048.0781 L609.4844,1049.1719 Q609.4844,1050.4063 610.375,1051.2266 Q611.2656,1052.0469 612.8594,1052.0469 Q613.7969,1052.0469 614.4531,1051.7969 Q614.8438,1051.6406 615.2656,1051.2031 Q615.5313,1050.9375 615.6797,1050.8594 Q615.8281,1050.7813 616.0313,1050.7813 Q616.3594,1050.7813 616.6172,1051.0391 Q616.875,1051.2969 616.875,1051.6406 Q616.875,1051.9844 616.5313,1052.3906 Q616.0313,1052.9688 615.2344,1053.2969 Q614.1563,1053.75 612.8594,1053.75 Q611.3438,1053.75 610.1406,1053.125 Q609.1563,1052.625 608.4688,1051.5547 Q607.7813,1050.4844 607.7813,1049.2031 L607.7813,1048.0469 Q607.7813,1046.7188 608.3984,1045.5703 Q609.0156,1044.4219 610.1094,1043.8047 Q611.2031,1043.1875 612.4375,1043.1875 Q613.1719,1043.1875 613.8203,1043.3516 Q614.4688,1043.5156 615.0156,1043.875 Z " fill="#000000"/><text fill="#000000" font-family="sans-serif" font-size="14" lengthAdjust="spacing" textLength="37" x="632.75" y="1053.7285">Sprite</text><line style="stroke:#181818;stroke-width:0.5;" x1="567" x2="703" y1="1064" y2="1064"/><text fill="#000000" font-family="sans-serif" font-size="14" lengthAdjust="spacing" textLength="83" x="572" y="1082.5332">b_proc : bool</text><text fill="#000000" font-family="sans-serif" font-size="14" lengthAdjust="spacing" textLength="126" x="572" y="1100.1426">s_spritePath : string</text><line style="stroke:#181818;stroke-width:0.5;" x1="567" x2="703" y1="1107.2188" y2="1107.2188"/></g><!--class Transform--><g id="elem_Transform"><rect codeLine="111" fill="#F1F1F1" height="171.2656" id="Transform" rx="2.5" ry="2.5" style="stroke:#181818;stroke-width:0.5;" width="185" x="739.5" y="988"/><ellipse cx="795.25" cy="1004" fill="#ADD1B2" rx="11" ry="11" style="stroke:#181818;stroke-width:1.0;"/><path d="M798.0156,999.875 Q798.1719,999.6563 798.3594,999.5469 Q798.5469,999.4375 798.7656,999.4375 Q799.1406,999.4375 799.375,999.6953 Q799.6094,999.9531 799.6094,1000.5625 L799.6094,1002.0156 Q799.6094,1002.625 799.375,1002.8906 Q799.1406,1003.1563 798.7656,1003.1563 Q798.4219,1003.1563 798.2188,1002.9531 Q798.0156,1002.7656 797.9063,1002.25 Q797.8594,1001.8906 797.6719,1001.7031 Q797.3438,1001.3281 796.7344,1001.1094 Q796.125,1000.8906 795.5,1000.8906 Q794.7344,1000.8906 794.1016,1001.2188 Q793.4688,1001.5469 792.9766,1002.2969 Q792.4844,1003.0469 792.4844,1004.0781 L792.4844,1005.1719 Q792.4844,1006.4063 793.375,1007.2266 Q794.2656,1008.0469 795.8594,1008.0469 Q796.7969,1008.0469 797.4531,1007.7969 Q797.8438,1007.6406 798.2656,1007.2031 Q798.5313,1006.9375 798.6797,1006.8594 Q798.8281,1006.7813 799.0313,1006.7813 Q799.3594,1006.7813 799.6172,1007.0391 Q799.875,1007.2969 799.875,1007.6406 Q799.875,1007.9844 799.5313,1008.3906 Q799.0313,1008.9688 798.2344,1009.2969 Q797.1563,1009.75 795.8594,1009.75 Q794.3438,1009.75 793.1406,1009.125 Q792.1563,1008.625 791.4688,1007.5547 Q790.7813,1006.4844 790.7813,1005.2031 L790.7813,1004.0469 Q790.7813,1002.7188 791.3984,1001.5703 Q792.0156,1000.4219 793.1094,999.8047 Q794.2031,999.1875 795.4375,999.1875 Q796.1719,999.1875 796.8203,999.3516 Q797.4688,999.5156 798.0156,999.875 Z " fill="#000000"/><text fill="#000000" font-family="sans-serif" font-size="14" lengthAdjust="spacing" textLength="65" x="815.75" y="1009.7285">Transform</text><line style="stroke:#181818;stroke-width:0.5;" x1="740.5" x2="923.5" y1="1020" y2="1020"/><ellipse cx="750.5" cy="1034.3047" fill="none" rx="3" ry="3" style="stroke:#038048;stroke-width:1.0;"/><text fill="#000000" font-family="sans-serif" font-size="14" lengthAdjust="spacing" textLength="93" x="759.5" y="1038.5332">position : Vec2</text><ellipse cx="750.5" cy="1051.9141" fill="none" rx="3" ry="3" style="stroke:#038048;stroke-width:1.0;"/><text fill="#000000" font-family="sans-serif" font-size="14" lengthAdjust="spacing" textLength="87" x="759.5" y="1056.1426">rotation : float</text><ellipse cx="750.5" cy="1069.5234" fill="none" rx="3" ry="3" style="stroke:#038048;stroke-width:1.0;"/><text fill="#000000" font-family="sans-serif" font-size="14" lengthAdjust="spacing" textLength="77" x="759.5" y="1073.752">scale : Vec2</text><ellipse cx="750.5" cy="1087.1328" fill="none" rx="3" ry="3" style="stroke:#038048;stroke-width:1.0;"/><text fill="#000000" font-family="sans-serif" font-size="14" lengthAdjust="spacing" textLength="91" x="759.5" y="1091.3613">forward : Vec2</text><ellipse cx="750.5" cy="1104.7422" fill="none" rx="3" ry="3" style="stroke:#038048;stroke-width:1.0;"/><text fill="#000000" font-family="sans-serif" font-size="14" lengthAdjust="spacing" textLength="60" x="759.5" y="1108.9707">up : Vec2</text><line style="stroke:#181818;stroke-width:0.5;" x1="740.5" x2="923.5" y1="1116.0469" y2="1116.0469"/><ellipse cx="750.5" cy="1130.3516" fill="#84BE84" rx="3" ry="3" style="stroke:#038048;stroke-width:1.0;"/><text fill="#000000" font-family="sans-serif" font-size="14" lengthAdjust="spacing" textLength="126" x="759.5" y="1134.5801">Rotate(angle : float)</text><ellipse cx="750.5" cy="1147.9609" fill="#84BE84" rx="3" ry="3" style="stroke:#038048;stroke-width:1.0;"/><text fill="#000000" font-family="sans-serif" font-size="14" lengthAdjust="spacing" textLength="159" x="759.5" y="1152.1895">LookAt(targetPos : Vec2)</text></g><!--reverse link World to Scene--><g id="link_World_Scene"><path codeLine="122" d="M529,190.26 C529,206.52 529,211.53 529,227.79 " fill="none" id="World-backto-Scene" style="stroke:#181818;stroke-width:1.0;"/><polygon fill="#181818" points="529,178.26,525,184.26,529,190.26,533,184.26,529,178.26" style="stroke:#181818;stroke-width:1.0;"/><polygon fill="#000000" points="534,199.1958,536.9389,190.1507,531.0611,190.1507,534,199.1958" style="stroke:#000000;stroke-width:1.0;"/><text fill="#000000" font-family="sans-serif" font-size="13" lengthAdjust="spacing" textLength="49" x="543" y="199.5151">contains</text><text fill="#000000" font-family="sans-serif" font-size="13" lengthAdjust="spacing" textLength="7" x="517.5273" y="199.8163">1</text><text fill="#000000" font-family="sans-serif" font-size="13" lengthAdjust="spacing" textLength="20" x="503.9688" y="217.2356">1..*</text></g><!--reverse link Scene to GameObject--><g id="link_Scene_GameObject"><path codeLine="123" d="M529,411.17 C529,429.77 529,437.78 529,457.46 " fill="none" id="Scene-backto-GameObject" style="stroke:#181818;stroke-width:1.0;"/><polygon fill="#181818" points="529,399.17,525,405.17,529,411.17,533,405.17,529,399.17" style="stroke:#181818;stroke-width:1.0;"/><polygon fill="#000000" points="534,424.4858,536.9389,415.4407,531.0611,415.4407,534,424.4858" style="stroke:#000000;stroke-width:1.0;"/><text fill="#000000" font-family="sans-serif" font-size="13" lengthAdjust="spacing" textLength="49" x="543" y="424.8051">contains</text><text fill="#000000" font-family="sans-serif" font-size="13" lengthAdjust="spacing" textLength="7" x="517.5273" y="420.7186">1</text><text fill="#000000" font-family="sans-serif" font-size="13" lengthAdjust="spacing" textLength="20" x="504.2313" y="446.7093">1..*</text></g><!--reverse link GameObject to Component--><g id="link_GameObject_Component"><path codeLine="124" d="M529,711.71 C529,731.68 529,739.73 529,757.79 " fill="none" id="GameObject-backto-Component" style="stroke:#181818;stroke-width:1.0;"/><polygon fill="none" points="529,699.71,525,705.71,529,711.71,533,705.71,529,699.71" style="stroke:#181818;stroke-width:1.0;"/></g><!--link Vector to GameObject--><!--reverse link Component to Collider--><g id="link_Component_Collider"><path codeLine="126" d="M416.49,826 C311.92,826 174,826 174,826 C174,826 174,923.59 174,996.21 " fill="none" id="Component-backto-Collider" style="stroke:#181818;stroke-width:1.0;"/><polygon fill="#181818" points="422.49,826,413.49,822,417.49,826,413.49,830,422.49,826" style="stroke:#181818;stroke-width:1.0;"/><text fill="#000000" font-family="sans-serif" font-size="13" lengthAdjust="spacing" textLength="22" x="150.9516" y="985.6091">0..1</text></g><!--reverse link Component to Physics--><g id="link_Component_Physics"><path codeLine="127" d="M476.5,900.29 C476.5,915.74 476.5,926.65 476.5,943.71 " fill="none" id="Component-backto-Physics" style="stroke:#181818;stroke-width:1.0;"/><polygon fill="#181818" points="476.5,894.29,472.5,903.29,476.5,899.29,480.5,903.29,476.5,894.29" style="stroke:#181818;stroke-width:1.0;"/><text fill="#000000" font-family="sans-serif" font-size="13" lengthAdjust="spacing" textLength="22" x="456.8992" y="933.2403">0..1</text></g><!--reverse link Component to Sprite--><g id="link_Component_Sprite"><path codeLine="128" d="M589.17,900.29 C589.17,944.36 589.17,994.26 589.17,1031.81 " fill="none" id="Component-backto-Sprite" style="stroke:#181818;stroke-width:1.0;"/><polygon fill="#181818" points="589.17,894.29,585.17,903.29,589.17,899.29,593.17,903.29,589.17,894.29" style="stroke:#181818;stroke-width:1.0;"/><text fill="#000000" font-family="sans-serif" font-size="13" lengthAdjust="spacing" textLength="22" x="557.7575" y="1021.0862">0..1</text></g><!--reverse link Component to Transform--><g id="link_Component_Transform"><path codeLine="129" d="M612.33,900.25 C612.33,952.62 612.33,1010 612.33,1010 C612.33,1010 679.44,1010 739.48,1010 " fill="none" id="Component-backto-Transform" style="stroke:#181818;stroke-width:1.0;"/><polygon fill="#181818" points="612.33,894.25,608.33,903.25,612.33,899.25,616.33,903.25,612.33,894.25" style="stroke:#181818;stroke-width:1.0;"/><text fill="#000000" font-family="sans-serif" font-size="13" lengthAdjust="spacing" textLength="7" x="724.5283" y="1001.5776">1</text></g><!--reverse link Collider to ColliderRect--><g id="link_Collider_ColliderRect"><path codeLine="131" d="M237,1156.55 C237,1188.37 237,1219.56 237,1253 " fill="none" id="Collider-backto-ColliderRect" style="stroke:#181818;stroke-width:1.0;"/><polygon fill="#181818" points="237,1150.55,233,1159.55,237,1155.55,241,1159.55,237,1150.55" style="stroke:#181818;stroke-width:1.0;"/></g><!--reverse link Collider to ColliderCircle--><g id="link_Collider_ColliderCircle"><path codeLine="132" d="M111.5,1156.55 C111.5,1191.22 111.5,1226.26 111.5,1261.88 " fill="none" id="Collider-backto-ColliderCircle" style="stroke:#181818;stroke-width:1.0;"/><polygon fill="#181818" points="111.5,1150.55,107.5,1159.55,111.5,1155.55,115.5,1159.55,111.5,1150.55" style="stroke:#181818;stroke-width:1.0;"/></g><!--SRC=[rLTHJniv47xdLrZSomO2eYVTowbtKWeggiH1HEYrLLjLnXuI7rvxOplbKiH_xwntircpNYzjxnuQ2TRoV3EU-MRiiUsjK0KrD2VNbDtEZLufVgobDkHk8Hpi4FpP1YE50hSkW6ZZ5lgHq51rQw4WlntjU0cJr5hoDp2dpRsVAN_tDm8aVo3_aj_9ZTJKTIJhhYG7N0v5- -H4kqox1HW4eUbVH_KtXlsBphDHojXiEGYPWYcor2BdskHKYY_mD1HFmYPgBk45k3i0LOMPTixeVv1Uu1SjT9_jI-seWuoMIwHmCrc6NDI8CLas8xVn9L1_Q2NxZJQITtDzG2m31HRLk60k8gVCYSymAr48yjyeFvnxMURjdTCSnfNfqgDhhMKqSCXrRNkhbrAOWPji_NcYZgCcq1h5KAyBZZbempX8Hwz43d-SQmoZmwX7nHYTeqCNrsNwIrgbiAw7iDC6c6rrXldwPZNFm63iZwAE8a_17UkyG3wKind3uORzlZ1He-RYZN2BHZck-z0-dhPXnaWM71M5YbKiQppiL7NWrwiJl-C38q5-Gc_z2F7Dx72cVi10c-c0h6QsDzEf90_ajm9Xbv62Wzc2nqXgDRSfwOJwTB6sWjcsTguvL5Gdz2wKNzWAhRBDSZxWQZZgbaZ3HRT2zeb2mb3TEYFKF2B7rbZbOrje_mUbtnDL9Oe5nJQs4blkHDX2qdMJnIVvFcuI787_4idGADwsSN575OEfncJFO9wNzMkN9n_KfaMDYLPdmdUJilZ7P38cByPa6Z3Xz1pAjdaVuUKoUYJiDoLwLLw34ecNcb4vrLQuYiUmtOOmtvehMFnALEDc-0Sf4AYtQV6xXDWkBoaNAvkyCPK7Hf3ngbb523mMXadusIWqFHJy9om56x0-m684vQMytuLSb_L-SVDAWN629e81wuHR3V3o6P0PuTRz35F606-5D9q7l5ck93Mp0e0dbgjX4yOI8AOLbWN5tTtAVzZ58jXM4VHrlCw9DDGri4E_r8P1TbF-txmwUf1NsYnNa3d_QMxBtTpF2eEFgsxghpyLHhE-KEqdw_Mcr2t2VHCOlyA7c4LlyrXf5OFRoGpl95jleXuBkFOTDRmVi2gU-4u9ANm4FDFwTk8ox9nuYcEP1Bb1HlpNlqZ8xZEoI_OE3d1mUBY7uyrB0sl7OULOygT7LzCTzBPtTrLQCeqguSMf9JoGxnU2Sr0VwoUn1pHmyhnSx-ZmyDbkSuBs8-gpenzG5LXCZiAcG7PgG7rVG3aF-bz2N9tkNm40]--></g></svg>