<?xml version="1.0" encoding="us-ascii" standalone="no"?><svg xmlns="http://www.w3.org/2000/svg" xmlns:xlink="http://www.w3.org/1999/xlink" contentStyleType="text/css" height="1484px" preserveAspectRatio="none" style="width:939px;height:1484px;background:#FFFFFF;" version="1.1" viewBox="0 0 939 1484" width="939px" zoomAndPan="magnify"><defs/><g><!--class Vector--><g id="elem_Vector"><rect codeLine="5" fill="#F1F1F1" height="259.3125" id="Vector" rx="2.5" ry="2.5" style="stroke:#181818;stroke-width:0.5;" width="276" x="48" y="449"/><ellipse cx="161.25" cy="465" fill="#ADD1B2" rx="11" ry="11" style="stroke:#181818;stroke-width:1.0;"/><path d="M164.0156,460.875 Q164.1719,460.6563 164.3594,460.5469 Q164.5469,460.4375 164.7656,460.4375 Q165.1406,460.4375 165.375,460.7031 Q165.6094,460.9531 165.6094,461.5625 L165.6094,463.0156 Q165.6094,463.625 165.375,463.8906 Q165.1406,464.1563 164.7656,464.1563 Q164.4219,464.1563 164.2188,463.9531 Q164.0156,463.7656 163.9063,463.25 Q163.8594,462.8906 163.6719,462.7031 Q163.3438,462.3281 162.7344,462.1094 Q162.125,461.8906 161.5,461.8906 Q160.7344,461.8906 160.0938,462.2188 Q159.4688,462.5469 158.9688,463.2969 Q158.4844,464.0469 158.4844,465.0781 L158.4844,466.1719 Q158.4844,467.4063 159.375,468.2344 Q160.2656,469.0469 161.8594,469.0469 Q162.7969,469.0469 163.4531,468.7969 Q163.8438,468.6406 164.2656,468.2031 Q164.5313,467.9375 164.6719,467.8594 Q164.8281,467.7813 165.0313,467.7813 Q165.3594,467.7813 165.6094,468.0469 Q165.875,468.2969 165.875,468.6406 Q165.875,468.9844 165.5313,469.3906 Q165.0313,469.9688 164.2344,470.2969 Q163.1563,470.75 161.8594,470.75 Q160.3438,470.75 159.1406,470.125 Q158.1563,469.625 157.4688,468.5625 Q156.7813,467.4844 156.7813,466.2031 L156.7813,465.0469 Q156.7813,463.7188 157.3906,462.5781 Q158.0156,461.4219 159.1094,460.8125 Q160.2031,460.1875 161.4375,460.1875 Q162.1719,460.1875 162.8125,460.3594 Q163.4688,460.5156 164.0156,460.875 Z " fill="#000000"/><text fill="#000000" font-family="sans-serif" font-size="14" lengthAdjust="spacing" textLength="41" x="181.75" y="470.7285">Vector</text><line style="stroke:#181818;stroke-width:0.5;" x1="49" x2="323" y1="481" y2="481"/><text fill="#000000" font-family="sans-serif" font-size="14" lengthAdjust="spacing" textLength="45" x="54" y="499.5332">x : float</text><text fill="#000000" font-family="sans-serif" font-size="14" lengthAdjust="spacing" textLength="46" x="54" y="517.1426">y : float</text><line style="stroke:#181818;stroke-width:0.5;" x1="49" x2="323" y1="524.2188" y2="524.2188"/><ellipse cx="59" cy="538.5234" fill="#84BE84" rx="3" ry="3" style="stroke:#038048;stroke-width:1.0;"/><text fill="#000000" font-family="sans-serif" font-size="14" lengthAdjust="spacing" textLength="153" x="68" y="542.752">Dot(other : Vec2) : Vec2</text><ellipse cx="59" cy="556.1328" fill="#84BE84" rx="3" ry="3" style="stroke:#038048;stroke-width:1.0;"/><text fill="#000000" font-family="sans-serif" font-size="14" lengthAdjust="spacing" textLength="76" x="68" y="560.3613">Mag() : float</text><ellipse cx="59" cy="573.7422" fill="#84BE84" rx="3" ry="3" style="stroke:#038048;stroke-width:1.0;"/><text fill="#000000" font-family="sans-serif" font-size="14" lengthAdjust="spacing" textLength="93" x="68" y="577.9707">SqMag() : float</text><ellipse cx="59" cy="591.3516" fill="#84BE84" rx="3" ry="3" style="stroke:#038048;stroke-width:1.0;"/><text fill="#000000" font-family="sans-serif" font-size="14" lengthAdjust="spacing" textLength="84" x="68" y="595.5801">Perp() : Vec2</text><ellipse cx="59" cy="608.9609" fill="#84BE84" rx="3" ry="3" style="stroke:#038048;stroke-width:1.0;"/><text fill="#000000" font-family="sans-serif" font-size="14" lengthAdjust="spacing" textLength="115" x="68" y="613.1895">Normalize() : Vec2</text><ellipse cx="59" cy="626.5703" fill="#84BE84" rx="3" ry="3" style="stroke:#038048;stroke-width:1.0;"/><text fill="#000000" font-family="sans-serif" font-size="14" lengthAdjust="spacing" textLength="123" x="68" y="630.7988">Normalized() : Vec2</text><ellipse cx="59" cy="644.1797" fill="#84BE84" rx="3" ry="3" style="stroke:#038048;stroke-width:1.0;"/><text fill="#000000" font-family="sans-serif" font-size="14" lengthAdjust="spacing" textLength="172" x="68" y="648.4082">AngleBetween(other) : float</text><ellipse cx="59" cy="661.7891" fill="#84BE84" rx="3" ry="3" style="stroke:#038048;stroke-width:1.0;"/><text fill="#000000" font-family="sans-serif" font-size="14" lengthAdjust="spacing" textLength="166" x="68" y="666.0176">ProjectedOn(other) : Vec2</text><ellipse cx="59" cy="679.3984" fill="#84BE84" rx="3" ry="3" style="stroke:#038048;stroke-width:1.0;"/><text fill="#000000" font-family="sans-serif" font-size="14" lengthAdjust="spacing" textLength="131" x="68" y="683.627">Rotate(angle) : Vec2</text><ellipse cx="59" cy="697.0078" fill="#84BE84" rx="3" ry="3" style="stroke:#038048;stroke-width:1.0;"/><text fill="#000000" font-family="sans-serif" font-size="14" lengthAdjust="spacing" textLength="250" x="68" y="701.2363">Slerp(p : Vec2, q : Vec2, t : float) : Vec2</text></g><!--class World--><g id="elem_World"><rect codeLine="19" fill="#F1F1F1" height="171.2656" id="World" rx="2.5" ry="2.5" style="stroke:#181818;stroke-width:0.5;" width="262" x="406" y="7"/><ellipse cx="514.25" cy="23" fill="#ADD1B2" rx="11" ry="11" style="stroke:#181818;stroke-width:1.0;"/><path d="M517.0156,18.875 Q517.1719,18.6563 517.3594,18.5469 Q517.5469,18.4375 517.7656,18.4375 Q518.1406,18.4375 518.375,18.7031 Q518.6094,18.9531 518.6094,19.5625 L518.6094,21.0156 Q518.6094,21.625 518.375,21.8906 Q518.1406,22.1563 517.7656,22.1563 Q517.4219,22.1563 517.2188,21.9531 Q517.0156,21.7656 516.9063,21.25 Q516.8594,20.8906 516.6719,20.7031 Q516.3438,20.3281 515.7344,20.1094 Q515.125,19.8906 514.5,19.8906 Q513.7344,19.8906 513.0938,20.2188 Q512.4688,20.5469 511.9688,21.2969 Q511.4844,22.0469 511.4844,23.0781 L511.4844,24.1719 Q511.4844,25.4063 512.375,26.2344 Q513.2656,27.0469 514.8594,27.0469 Q515.7969,27.0469 516.4531,26.7969 Q516.8438,26.6406 517.2656,26.2031 Q517.5313,25.9375 517.6719,25.8594 Q517.8281,25.7813 518.0313,25.7813 Q518.3594,25.7813 518.6094,26.0469 Q518.875,26.2969 518.875,26.6406 Q518.875,26.9844 518.5313,27.3906 Q518.0313,27.9688 517.2344,28.2969 Q516.1563,28.75 514.8594,28.75 Q513.3438,28.75 512.1406,28.125 Q511.1563,27.625 510.4688,26.5625 Q509.7813,25.4844 509.7813,24.2031 L509.7813,23.0469 Q509.7813,21.7188 510.3906,20.5781 Q511.0156,19.4219 512.1094,18.8125 Q513.2031,18.1875 514.4375,18.1875 Q515.1719,18.1875 515.8125,18.3594 Q516.4688,18.5156 517.0156,18.875 Z " fill="#000000"/><text fill="#000000" font-family="sans-serif" font-size="14" lengthAdjust="spacing" textLength="37" x="534.75" y="28.7285">World</text><line style="stroke:#181818;stroke-width:0.5;" x1="407" x2="667" y1="39" y2="39"/><rect fill="none" height="6" style="stroke:#C82930;stroke-width:1.0;" width="6" x="414" y="50.3047"/><text fill="#000000" font-family="sans-serif" font-size="14" lengthAdjust="spacing" textLength="79" x="426" y="57.5332">scenes : dict</text><rect fill="none" height="6" style="stroke:#C82930;stroke-width:1.0;" width="6" x="414" y="67.9141"/><text fill="#000000" font-family="sans-serif" font-size="14" lengthAdjust="spacing" textLength="129" x="426" y="75.1426">activeScene : Scene</text><line style="stroke:#181818;stroke-width:0.5;" x1="407" x2="667" y1="82.2188" y2="82.2188"/><ellipse cx="417" cy="96.5234" fill="#84BE84" rx="3" ry="3" style="stroke:#038048;stroke-width:1.0;"/><text fill="#000000" font-family="sans-serif" font-size="14" lengthAdjust="spacing" textLength="234" x="426" y="100.752">AddScene(sceneName, scene) : bool</text><ellipse cx="417" cy="114.1328" fill="#84BE84" rx="3" ry="3" style="stroke:#038048;stroke-width:1.0;"/><text fill="#000000" font-family="sans-serif" font-size="14" lengthAdjust="spacing" textLength="215" x="426" y="118.3613">RemoveScene(sceneName) : bool</text><ellipse cx="417" cy="131.7422" fill="#84BE84" rx="3" ry="3" style="stroke:#038048;stroke-width:1.0;"/><text fill="#000000" font-family="sans-serif" font-size="14" lengthAdjust="spacing" textLength="222" x="426" y="135.9707">SetActiveScene(sceneName) : bool</text><ellipse cx="417" cy="149.3516" fill="#84BE84" rx="3" ry="3" style="stroke:#038048;stroke-width:1.0;"/><text fill="#000000" font-family="sans-serif" font-size="14" lengthAdjust="spacing" textLength="118" x="426" y="153.5801">StartActiveScene()</text><ellipse cx="417" cy="166.9609" fill="#84BE84" rx="3" ry="3" style="stroke:#038048;stroke-width:1.0;"/><text fill="#000000" font-family="sans-serif" font-size="14" lengthAdjust="spacing" textLength="236" x="426" y="171.1895">UpdateActiveScene(deltaTime=None)</text></g><!--class Scene--><g id="elem_Scene"><rect codeLine="28" fill="#F1F1F1" height="171.2656" id="Scene" rx="2.5" ry="2.5" style="stroke:#181818;stroke-width:0.5;" width="307" x="383.5" y="228"/><ellipse cx="512.75" cy="244" fill="#ADD1B2" rx="11" ry="11" style="stroke:#181818;stroke-width:1.0;"/><path d="M515.5156,239.875 Q515.6719,239.6563 515.8594,239.5469 Q516.0469,239.4375 516.2656,239.4375 Q516.6406,239.4375 516.875,239.7031 Q517.1094,239.9531 517.1094,240.5625 L517.1094,242.0156 Q517.1094,242.625 516.875,242.8906 Q516.6406,243.1563 516.2656,243.1563 Q515.9219,243.1563 515.7188,242.9531 Q515.5156,242.7656 515.4063,242.25 Q515.3594,241.8906 515.1719,241.7031 Q514.8438,241.3281 514.2344,241.1094 Q513.625,240.8906 513,240.8906 Q512.2344,240.8906 511.5938,241.2188 Q510.9688,241.5469 510.4688,242.2969 Q509.9844,243.0469 509.9844,244.0781 L509.9844,245.1719 Q509.9844,246.4063 510.875,247.2344 Q511.7656,248.0469 513.3594,248.0469 Q514.2969,248.0469 514.9531,247.7969 Q515.3438,247.6406 515.7656,247.2031 Q516.0313,246.9375 516.1719,246.8594 Q516.3281,246.7813 516.5313,246.7813 Q516.8594,246.7813 517.1094,247.0469 Q517.375,247.2969 517.375,247.6406 Q517.375,247.9844 517.0313,248.3906 Q516.5313,248.9688 515.7344,249.2969 Q514.6563,249.75 513.3594,249.75 Q511.8438,249.75 510.6406,249.125 Q509.6563,248.625 508.9688,247.5625 Q508.2813,246.4844 508.2813,245.2031 L508.2813,244.0469 Q508.2813,242.7188 508.8906,241.5781 Q509.5156,240.4219 510.6094,239.8125 Q511.7031,239.1875 512.9375,239.1875 Q513.6719,239.1875 514.3125,239.3594 Q514.9688,239.5156 515.5156,239.875 Z " fill="#000000"/><text fill="#000000" font-family="sans-serif" font-size="14" lengthAdjust="spacing" textLength="40" x="533.25" y="249.7285">Scene</text><line style="stroke:#181818;stroke-width:0.5;" x1="384.5" x2="689.5" y1="260" y2="260"/><rect fill="none" height="6" style="stroke:#C82930;stroke-width:1.0;" width="6" x="391.5" y="271.3047"/><text fill="#000000" font-family="sans-serif" font-size="14" lengthAdjust="spacing" textLength="112" x="403.5" y="278.5332">gameObjects : list</text><line style="stroke:#181818;stroke-width:0.5;" x1="384.5" x2="689.5" y1="285.6094" y2="285.6094"/><ellipse cx="394.5" cy="299.9141" fill="#84BE84" rx="3" ry="3" style="stroke:#038048;stroke-width:1.0;"/><text fill="#000000" font-family="sans-serif" font-size="14" lengthAdjust="spacing" textLength="229" x="403.5" y="304.1426">AddGameObject(gameObject) : bool</text><ellipse cx="394.5" cy="317.5234" fill="#84BE84" rx="3" ry="3" style="stroke:#038048;stroke-width:1.0;"/><text fill="#000000" font-family="sans-serif" font-size="14" lengthAdjust="spacing" textLength="256" x="403.5" y="321.752">RemoveGameObject(gameObject) : bool</text><ellipse cx="394.5" cy="335.1328" fill="#84BE84" rx="3" ry="3" style="stroke:#038048;stroke-width:1.0;"/><text fill="#000000" font-family="sans-serif" font-size="14" lengthAdjust="spacing" textLength="80" x="403.5" y="339.3613">StartScene()</text><ellipse cx="394.5" cy="352.7422" fill="#84BE84" rx="3" ry="3" style="stroke:#038048;stroke-width:1.0;"/><text fill="#000000" font-family="sans-serif" font-size="14" lengthAdjust="spacing" textLength="157" x="403.5" y="356.9707">UpdateScene(deltaTime)</text><ellipse cx="394.5" cy="370.3516" fill="#84BE84" rx="3" ry="3" style="stroke:#038048;stroke-width:1.0;"/><text fill="#000000" font-family="sans-serif" font-size="14" lengthAdjust="spacing" textLength="212" x="403.5" y="374.5801">GetComponents(compName) : list</text><ellipse cx="394.5" cy="387.9609" fill="#84BE84" rx="3" ry="3" style="stroke:#038048;stroke-width:1.0;"/><text fill="#000000" font-family="sans-serif" font-size="14" lengthAdjust="spacing" textLength="281" x="403.5" y="392.1895">GetObjectsWithComponent(compName) : list</text></g><!--class GameObject--><g id="elem_GameObject"><rect codeLine="38" fill="#F1F1F1" height="241.7031" id="GameObject" rx="2.5" ry="2.5" style="stroke:#181818;stroke-width:0.5;" width="355" x="359.5" y="457.5"/><ellipse cx="493.25" cy="473.5" fill="#ADD1B2" rx="11" ry="11" style="stroke:#181818;stroke-width:1.0;"/><path d="M496.0156,469.375 Q496.1719,469.1563 496.3594,469.0469 Q496.5469,468.9375 496.7656,468.9375 Q497.1406,468.9375 497.375,469.2031 Q497.6094,469.4531 497.6094,470.0625 L497.6094,471.5156 Q497.6094,472.125 497.375,472.3906 Q497.1406,472.6563 496.7656,472.6563 Q496.4219,472.6563 496.2188,472.4531 Q496.0156,472.2656 495.9063,471.75 Q495.8594,471.3906 495.6719,471.2031 Q495.3438,470.8281 494.7344,470.6094 Q494.125,470.3906 493.5,470.3906 Q492.7344,470.3906 492.0938,470.7188 Q491.4688,471.0469 490.9688,471.7969 Q490.4844,472.5469 490.4844,473.5781 L490.4844,474.6719 Q490.4844,475.9063 491.375,476.7344 Q492.2656,477.5469 493.8594,477.5469 Q494.7969,477.5469 495.4531,477.2969 Q495.8438,477.1406 496.2656,476.7031 Q496.5313,476.4375 496.6719,476.3594 Q496.8281,476.2813 497.0313,476.2813 Q497.3594,476.2813 497.6094,476.5469 Q497.875,476.7969 497.875,477.1406 Q497.875,477.4844 497.5313,477.8906 Q497.0313,478.4688 496.2344,478.7969 Q495.1563,479.25 493.8594,479.25 Q492.3438,479.25 491.1406,478.625 Q490.1563,478.125 489.4688,477.0625 Q488.7813,475.9844 488.7813,474.7031 L488.7813,473.5469 Q488.7813,472.2188 489.3906,471.0781 Q490.0156,469.9219 491.1094,469.3125 Q492.2031,468.6875 493.4375,468.6875 Q494.1719,468.6875 494.8125,468.8594 Q495.4688,469.0156 496.0156,469.375 Z " fill="#000000"/><text fill="#000000" font-family="sans-serif" font-size="14" lengthAdjust="spacing" textLength="79" x="513.75" y="479.2285">GameObject</text><line style="stroke:#181818;stroke-width:0.5;" x1="360.5" x2="713.5" y1="489.5" y2="489.5"/><rect fill="none" height="6" style="stroke:#C82930;stroke-width:1.0;" width="6" x="367.5" y="500.8047"/><text fill="#000000" font-family="sans-serif" font-size="14" lengthAdjust="spacing" textLength="38" x="379.5" y="508.0332">id : int</text><rect fill="none" height="6" style="stroke:#C82930;stroke-width:1.0;" width="6" x="367.5" y="518.4141"/><text fill="#000000" font-family="sans-serif" font-size="14" lengthAdjust="spacing" textLength="111" x="379.5" y="525.6426">components : dict</text><line style="stroke:#181818;stroke-width:0.5;" x1="360.5" x2="713.5" y1="532.7188" y2="532.7188"/><ellipse cx="370.5" cy="547.0234" fill="#84BE84" rx="3" ry="3" style="stroke:#038048;stroke-width:1.0;"/><text fill="#000000" font-family="sans-serif" font-size="14" lengthAdjust="spacing" textLength="73" x="379.5" y="551.252">GetID() : int</text><ellipse cx="370.5" cy="564.6328" fill="#84BE84" rx="3" ry="3" style="stroke:#038048;stroke-width:1.0;"/><text fill="#000000" font-family="sans-serif" font-size="14" lengthAdjust="spacing" textLength="302" x="379.5" y="568.8613">AddComponent(component : Component) : bool</text><ellipse cx="370.5" cy="582.2422" fill="#84BE84" rx="3" ry="3" style="stroke:#038048;stroke-width:1.0;"/><text fill="#000000" font-family="sans-serif" font-size="14" lengthAdjust="spacing" textLength="329" x="379.5" y="586.4707">RemoveComponent(component : Component) : bool</text><ellipse cx="370.5" cy="599.8516" fill="#84BE84" rx="3" ry="3" style="stroke:#038048;stroke-width:1.0;"/><text fill="#000000" font-family="sans-serif" font-size="14" lengthAdjust="spacing" textLength="261" x="379.5" y="604.0801">GetComponent(compName) : Component</text><ellipse cx="370.5" cy="617.4609" fill="#84BE84" rx="3" ry="3" style="stroke:#038048;stroke-width:1.0;"/><text fill="#000000" font-family="sans-serif" font-size="14" lengthAdjust="spacing" textLength="40" x="379.5" y="621.6895">Start()</text><ellipse cx="370.5" cy="635.0703" fill="#84BE84" rx="3" ry="3" style="stroke:#038048;stroke-width:1.0;"/><text fill="#000000" font-family="sans-serif" font-size="14" lengthAdjust="spacing" textLength="117" x="379.5" y="639.2988">Update(deltaTime)</text><ellipse cx="370.5" cy="652.6797" fill="#84BE84" rx="3" ry="3" style="stroke:#038048;stroke-width:1.0;"/><text fill="#000000" font-family="sans-serif" font-size="14" lengthAdjust="spacing" textLength="254" x="379.5" y="656.9082">UpdateCollider(deltaTime, colliders : list)</text><ellipse cx="370.5" cy="670.2891" fill="#84BE84" rx="3" ry="3" style="stroke:#038048;stroke-width:1.0;"/><text fill="#000000" font-family="sans-serif" font-size="14" lengthAdjust="spacing" textLength="235" x="379.5" y="674.5176">UpdatePhysics(deltaTime, mode : int)</text><ellipse cx="370.5" cy="687.8984" fill="#84BE84" rx="3" ry="3" style="stroke:#038048;stroke-width:1.0;"/><text fill="#000000" font-family="sans-serif" font-size="14" lengthAdjust="spacing" textLength="232" x="379.5" y="692.127">UpdateOnCollision(collider : Collider)</text></g><!--class Component--><g id="elem_Component"><rect codeLine="52" fill="#F1F1F1" height="136.0469" id="Component" rx="2.5" ry="2.5" style="stroke:#181818;stroke-width:0.5;" width="213" x="430.5" y="758"/><ellipse cx="496.25" cy="774" fill="#ADD1B2" rx="11" ry="11" style="stroke:#181818;stroke-width:1.0;"/><path d="M499.0156,769.875 Q499.1719,769.6563 499.3594,769.5469 Q499.5469,769.4375 499.7656,769.4375 Q500.1406,769.4375 500.375,769.7031 Q500.6094,769.9531 500.6094,770.5625 L500.6094,772.0156 Q500.6094,772.625 500.375,772.8906 Q500.1406,773.1563 499.7656,773.1563 Q499.4219,773.1563 499.2188,772.9531 Q499.0156,772.7656 498.9063,772.25 Q498.8594,771.8906 498.6719,771.7031 Q498.3438,771.3281 497.7344,771.1094 Q497.125,770.8906 496.5,770.8906 Q495.7344,770.8906 495.0938,771.2188 Q494.4688,771.5469 493.9688,772.2969 Q493.4844,773.0469 493.4844,774.0781 L493.4844,775.1719 Q493.4844,776.4063 494.375,777.2344 Q495.2656,778.0469 496.8594,778.0469 Q497.7969,778.0469 498.4531,777.7969 Q498.8438,777.6406 499.2656,777.2031 Q499.5313,776.9375 499.6719,776.8594 Q499.8281,776.7813 500.0313,776.7813 Q500.3594,776.7813 500.6094,777.0469 Q500.875,777.2969 500.875,777.6406 Q500.875,777.9844 500.5313,778.3906 Q500.0313,778.9688 499.2344,779.2969 Q498.1563,779.75 496.8594,779.75 Q495.3438,779.75 494.1406,779.125 Q493.1563,778.625 492.4688,777.5625 Q491.7813,776.4844 491.7813,775.2031 L491.7813,774.0469 Q491.7813,772.7188 492.3906,771.5781 Q493.0156,770.4219 494.1094,769.8125 Q495.2031,769.1875 496.4375,769.1875 Q497.1719,769.1875 497.8125,769.3594 Q498.4688,769.5156 499.0156,769.875 Z " fill="#000000"/><text fill="#000000" font-family="sans-serif" font-size="14" lengthAdjust="spacing" textLength="73" x="516.75" y="779.7285">Component</text><line style="stroke:#181818;stroke-width:0.5;" x1="431.5" x2="642.5" y1="790" y2="790"/><ellipse cx="441.5" cy="804.3047" fill="none" rx="3" ry="3" style="stroke:#038048;stroke-width:1.0;"/><text fill="#000000" font-family="sans-serif" font-size="14" lengthAdjust="spacing" textLength="82" x="450.5" y="808.5332">name : string</text><ellipse cx="441.5" cy="821.9141" fill="none" rx="3" ry="3" style="stroke:#038048;stroke-width:1.0;"/><text fill="#000000" font-family="sans-serif" font-size="14" lengthAdjust="spacing" textLength="132" x="450.5" y="826.1426">parent : GameObject</text><line style="stroke:#181818;stroke-width:0.5;" x1="431.5" x2="642.5" y1="833.2188" y2="833.2188"/><ellipse cx="441.5" cy="847.5234" fill="#84BE84" rx="3" ry="3" style="stroke:#038048;stroke-width:1.0;"/><text fill="#000000" font-family="sans-serif" font-size="14" lengthAdjust="spacing" textLength="40" x="450.5" y="851.752">Start()</text><ellipse cx="441.5" cy="865.1328" fill="#84BE84" rx="3" ry="3" style="stroke:#038048;stroke-width:1.0;"/><text fill="#000000" font-family="sans-serif" font-size="14" lengthAdjust="spacing" textLength="117" x="450.5" y="869.3613">Update(deltaTime)</text><ellipse cx="441.5" cy="882.7422" fill="#84BE84" rx="3" ry="3" style="stroke:#038048;stroke-width:1.0;"/><text fill="#000000" font-family="sans-serif" font-size="14" lengthAdjust="spacing" textLength="187" x="450.5" y="886.9707">OnCollision(collider : Collider)</text></g><!--class Collider--><g id="elem_Collider"><rect codeLine="60" fill="#F1F1F1" height="118.4375" id="Collider" rx="2.5" ry="2.5" style="stroke:#181818;stroke-width:0.5;" width="199" x="91.5" y="1014.5"/><ellipse cx="162.75" cy="1030.5" fill="#ADD1B2" rx="11" ry="11" style="stroke:#181818;stroke-width:1.0;"/><path d="M165.5156,1026.375 Q165.6719,1026.1563 165.8594,1026.0469 Q166.0469,1025.9375 166.2656,1025.9375 Q166.6406,1025.9375 166.875,1026.2031 Q167.1094,1026.4531 167.1094,1027.0625 L167.1094,1028.5156 Q167.1094,1029.125 166.875,1029.3906 Q166.6406,1029.6563 166.2656,1029.6563 Q165.9219,1029.6563 165.7188,1029.4531 Q165.5156,1029.2656 165.4063,1028.75 Q165.3594,1028.3906 165.1719,1028.2031 Q164.8438,1027.8281 164.2344,1027.6094 Q163.625,1027.3906 163,1027.3906 Q162.2344,1027.3906 161.5938,1027.7188 Q160.9688,1028.0469 160.4688,1028.7969 Q159.9844,1029.5469 159.9844,1030.5781 L159.9844,1031.6719 Q159.9844,1032.9063 160.875,1033.7344 Q161.7656,1034.5469 163.3594,1034.5469 Q164.2969,1034.5469 164.9531,1034.2969 Q165.3438,1034.1406 165.7656,1033.7031 Q166.0313,1033.4375 166.1719,1033.3594 Q166.3281,1033.2813 166.5313,1033.2813 Q166.8594,1033.2813 167.1094,1033.5469 Q167.375,1033.7969 167.375,1034.1406 Q167.375,1034.4844 167.0313,1034.8906 Q166.5313,1035.4688 165.7344,1035.7969 Q164.6563,1036.25 163.3594,1036.25 Q161.8438,1036.25 160.6406,1035.625 Q159.6563,1035.125 158.9688,1034.0625 Q158.2813,1032.9844 158.2813,1031.7031 L158.2813,1030.5469 Q158.2813,1029.2188 158.8906,1028.0781 Q159.5156,1026.9219 160.6094,1026.3125 Q161.7031,1025.6875 162.9375,1025.6875 Q163.6719,1025.6875 164.3125,1025.8594 Q164.9688,1026.0156 165.5156,1026.375 Z " fill="#000000"/><text fill="#000000" font-family="sans-serif" font-size="14" lengthAdjust="spacing" textLength="48" x="183.25" y="1036.2285">Collider</text><line style="stroke:#181818;stroke-width:0.5;" x1="92.5" x2="289.5" y1="1046.5" y2="1046.5"/><ellipse cx="102.5" cy="1060.8047" fill="none" rx="3" ry="3" style="stroke:#038048;stroke-width:1.0;"/><text fill="#000000" font-family="sans-serif" font-size="14" lengthAdjust="spacing" textLength="79" x="111.5" y="1065.0332">collision : list</text><line style="stroke:#181818;stroke-width:0.5;" x1="92.5" x2="289.5" y1="1072.1094" y2="1072.1094"/><ellipse cx="102.5" cy="1086.4141" fill="#84BE84" rx="3" ry="3" style="stroke:#038048;stroke-width:1.0;"/><text fill="#000000" font-family="sans-serif" font-size="14" lengthAdjust="spacing" textLength="104" x="111.5" y="1090.6426">DisplayCollider()</text><ellipse cx="102.5" cy="1104.0234" fill="#84BE84" rx="3" ry="3" style="stroke:#038048;stroke-width:1.0;"/><text fill="#000000" font-family="sans-serif" font-size="14" lengthAdjust="spacing" textLength="173" x="111.5" y="1108.252">Update(deltaTime,colliders)</text><polygon fill="#FFFF44" points="102.5,1116.6328,106.5,1120.6328,102.5,1124.6328,98.5,1120.6328" style="stroke:#B38D22;stroke-width:1.0;"/><text fill="#000000" font-family="sans-serif" font-size="14" lengthAdjust="spacing" textLength="127" x="111.5" y="1125.8613">UpdateOnCollision()</text></g><!--class ColliderRect--><g id="elem_ColliderRect"><rect codeLine="68" fill="#F1F1F1" height="224.0938" id="ColliderRect" rx="2.5" ry="2.5" style="stroke:#181818;stroke-width:0.5;" width="216" x="192" y="1253"/><ellipse cx="257.25" cy="1269" fill="#ADD1B2" rx="11" ry="11" style="stroke:#181818;stroke-width:1.0;"/><path d="M260.0156,1264.875 Q260.1719,1264.6563 260.3594,1264.5469 Q260.5469,1264.4375 260.7656,1264.4375 Q261.1406,1264.4375 261.375,1264.7031 Q261.6094,1264.9531 261.6094,1265.5625 L261.6094,1267.0156 Q261.6094,1267.625 261.375,1267.8906 Q261.1406,1268.1563 260.7656,1268.1563 Q260.4219,1268.1563 260.2188,1267.9531 Q260.0156,1267.7656 259.9063,1267.25 Q259.8594,1266.8906 259.6719,1266.7031 Q259.3438,1266.3281 258.7344,1266.1094 Q258.125,1265.8906 257.5,1265.8906 Q256.7344,1265.8906 256.0938,1266.2188 Q255.4688,1266.5469 254.9688,1267.2969 Q254.4844,1268.0469 254.4844,1269.0781 L254.4844,1270.1719 Q254.4844,1271.4063 255.375,1272.2344 Q256.2656,1273.0469 257.8594,1273.0469 Q258.7969,1273.0469 259.4531,1272.7969 Q259.8438,1272.6406 260.2656,1272.2031 Q260.5313,1271.9375 260.6719,1271.8594 Q260.8281,1271.7813 261.0313,1271.7813 Q261.3594,1271.7813 261.6094,1272.0469 Q261.875,1272.2969 261.875,1272.6406 Q261.875,1272.9844 261.5313,1273.3906 Q261.0313,1273.9688 260.2344,1274.2969 Q259.1563,1274.75 257.8594,1274.75 Q256.3438,1274.75 255.1406,1274.125 Q254.1563,1273.625 253.4688,1272.5625 Q252.7813,1271.4844 252.7813,1270.2031 L252.7813,1269.0469 Q252.7813,1267.7188 253.3906,1266.5781 Q254.0156,1265.4219 255.1094,1264.8125 Q256.2031,1264.1875 257.4375,1264.1875 Q258.1719,1264.1875 258.8125,1264.3594 Q259.4688,1264.5156 260.0156,1264.875 Z " fill="#000000"/><text fill="#000000" font-family="sans-serif" font-size="14" lengthAdjust="spacing" textLength="77" x="277.75" y="1274.7285">ColliderRect</text><line style="stroke:#181818;stroke-width:0.5;" x1="193" x2="407" y1="1285" y2="1285"/><ellipse cx="203" cy="1299.3047" fill="none" rx="3" ry="3" style="stroke:#038048;stroke-width:1.0;"/><text fill="#000000" font-family="sans-serif" font-size="14" lengthAdjust="spacing" textLength="124" x="212" y="1303.5332">colliderType : string</text><ellipse cx="203" cy="1316.9141" fill="none" rx="3" ry="3" style="stroke:#038048;stroke-width:1.0;"/><text fill="#000000" font-family="sans-serif" font-size="14" lengthAdjust="spacing" textLength="123" x="212" y="1321.1426">localPosition : Vec2</text><ellipse cx="203" cy="1334.5234" fill="none" rx="3" ry="3" style="stroke:#038048;stroke-width:1.0;"/><text fill="#000000" font-family="sans-serif" font-size="14" lengthAdjust="spacing" textLength="121" x="212" y="1338.752">localRotation : float</text><ellipse cx="203" cy="1352.1328" fill="none" rx="3" ry="3" style="stroke:#038048;stroke-width:1.0;"/><text fill="#000000" font-family="sans-serif" font-size="14" lengthAdjust="spacing" textLength="103" x="212" y="1356.3613">localScale : float</text><ellipse cx="203" cy="1369.7422" fill="none" rx="3" ry="3" style="stroke:#038048;stroke-width:1.0;"/><text fill="#000000" font-family="sans-serif" font-size="14" lengthAdjust="spacing" textLength="66" x="212" y="1373.9707">lenX : float</text><ellipse cx="203" cy="1387.3516" fill="none" rx="3" ry="3" style="stroke:#038048;stroke-width:1.0;"/><text fill="#000000" font-family="sans-serif" font-size="14" lengthAdjust="spacing" textLength="67" x="212" y="1391.5801">lenY : float</text><ellipse cx="203" cy="1404.9609" fill="none" rx="3" ry="3" style="stroke:#038048;stroke-width:1.0;"/><text fill="#000000" font-family="sans-serif" font-size="14" lengthAdjust="spacing" textLength="98" x="212" y="1409.1895">sqRadius : float</text><line style="stroke:#181818;stroke-width:0.5;" x1="193" x2="407" y1="1416.2656" y2="1416.2656"/><ellipse cx="203" cy="1430.5703" fill="#84BE84" rx="3" ry="3" style="stroke:#038048;stroke-width:1.0;"/><text fill="#000000" font-family="sans-serif" font-size="14" lengthAdjust="spacing" textLength="79" x="212" y="1434.7988">SetCollider()</text><ellipse cx="203" cy="1456.9844" fill="#84BE84" rx="3" ry="3" style="stroke:#038048;stroke-width:1.0;"/><text fill="#000000" font-family="sans-serif" font-size="14" lengthAdjust="spacing" textLength="190" x="212" y="1452.4082">SqDistancePointSegment(sqD</text><text fill="#000000" font-family="sans-serif" font-size="14" lengthAdjust="spacing" textLength="181" x="216" y="1470.0176">: float, onLine : bool, A, B, P)</text></g><!--class ColliderCircle--><g id="elem_ColliderCircle"><rect codeLine="80" fill="#F1F1F1" height="171.2656" id="ColliderCircle" rx="2.5" ry="2.5" style="stroke:#181818;stroke-width:0.5;" width="150" x="7" y="1279.5"/><ellipse cx="37.3" cy="1295.5" fill="#ADD1B2" rx="11" ry="11" style="stroke:#181818;stroke-width:1.0;"/><path d="M40.0656,1291.375 Q40.2219,1291.1563 40.4094,1291.0469 Q40.5969,1290.9375 40.8156,1290.9375 Q41.1906,1290.9375 41.425,1291.2031 Q41.6594,1291.4531 41.6594,1292.0625 L41.6594,1293.5156 Q41.6594,1294.125 41.425,1294.3906 Q41.1906,1294.6563 40.8156,1294.6563 Q40.4719,1294.6563 40.2688,1294.4531 Q40.0656,1294.2656 39.9563,1293.75 Q39.9094,1293.3906 39.7219,1293.2031 Q39.3938,1292.8281 38.7844,1292.6094 Q38.175,1292.3906 37.55,1292.3906 Q36.7844,1292.3906 36.1438,1292.7188 Q35.5188,1293.0469 35.0188,1293.7969 Q34.5344,1294.5469 34.5344,1295.5781 L34.5344,1296.6719 Q34.5344,1297.9063 35.425,1298.7344 Q36.3156,1299.5469 37.9094,1299.5469 Q38.8469,1299.5469 39.5031,1299.2969 Q39.8938,1299.1406 40.3156,1298.7031 Q40.5813,1298.4375 40.7219,1298.3594 Q40.8781,1298.2813 41.0813,1298.2813 Q41.4094,1298.2813 41.6594,1298.5469 Q41.925,1298.7969 41.925,1299.1406 Q41.925,1299.4844 41.5813,1299.8906 Q41.0813,1300.4688 40.2844,1300.7969 Q39.2063,1301.25 37.9094,1301.25 Q36.3938,1301.25 35.1906,1300.625 Q34.2063,1300.125 33.5188,1299.0625 Q32.8313,1297.9844 32.8313,1296.7031 L32.8313,1295.5469 Q32.8313,1294.2188 33.4406,1293.0781 Q34.0656,1291.9219 35.1594,1291.3125 Q36.2531,1290.6875 37.4875,1290.6875 Q38.2219,1290.6875 38.8625,1290.8594 Q39.5188,1291.0156 40.0656,1291.375 Z " fill="#000000"/><text fill="#000000" font-family="sans-serif" font-size="14" lengthAdjust="spacing" textLength="84" x="54.7" y="1301.2285">ColliderCircle</text><line style="stroke:#181818;stroke-width:0.5;" x1="8" x2="156" y1="1311.5" y2="1311.5"/><ellipse cx="18" cy="1325.8047" fill="none" rx="3" ry="3" style="stroke:#038048;stroke-width:1.0;"/><text fill="#000000" font-family="sans-serif" font-size="14" lengthAdjust="spacing" textLength="124" x="27" y="1330.0332">colliderType : string</text><ellipse cx="18" cy="1343.4141" fill="none" rx="3" ry="3" style="stroke:#038048;stroke-width:1.0;"/><text fill="#000000" font-family="sans-serif" font-size="14" lengthAdjust="spacing" textLength="123" x="27" y="1347.6426">localPosition : Vec2</text><ellipse cx="18" cy="1361.0234" fill="none" rx="3" ry="3" style="stroke:#038048;stroke-width:1.0;"/><text fill="#000000" font-family="sans-serif" font-size="14" lengthAdjust="spacing" textLength="121" x="27" y="1365.252">localRotation : float</text><ellipse cx="18" cy="1378.6328" fill="none" rx="3" ry="3" style="stroke:#038048;stroke-width:1.0;"/><text fill="#000000" font-family="sans-serif" font-size="14" lengthAdjust="spacing" textLength="103" x="27" y="1382.8613">localScale : float</text><ellipse cx="18" cy="1396.2422" fill="none" rx="3" ry="3" style="stroke:#038048;stroke-width:1.0;"/><text fill="#000000" font-family="sans-serif" font-size="14" lengthAdjust="spacing" textLength="78" x="27" y="1400.4707">radius : float</text><ellipse cx="18" cy="1413.8516" fill="none" rx="3" ry="3" style="stroke:#038048;stroke-width:1.0;"/><text fill="#000000" font-family="sans-serif" font-size="14" lengthAdjust="spacing" textLength="98" x="27" y="1418.0801">sqRadius : float</text><line style="stroke:#181818;stroke-width:0.5;" x1="8" x2="156" y1="1425.1563" y2="1425.1563"/><ellipse cx="18" cy="1439.4609" fill="#84BE84" rx="3" ry="3" style="stroke:#038048;stroke-width:1.0;"/><text fill="#000000" font-family="sans-serif" font-size="14" lengthAdjust="spacing" textLength="79" x="27" y="1443.6895">SetCollider()</text></g><!--class Physics--><g id="elem_Physics"><rect codeLine="91" fill="#F1F1F1" height="259.3125" id="Physics" rx="2.5" ry="2.5" style="stroke:#181818;stroke-width:0.5;" width="213" x="325.5" y="944"/><ellipse cx="403.75" cy="960" fill="#ADD1B2" rx="11" ry="11" style="stroke:#181818;stroke-width:1.0;"/><path d="M406.5156,955.875 Q406.6719,955.6563 406.8594,955.5469 Q407.0469,955.4375 407.2656,955.4375 Q407.6406,955.4375 407.875,955.7031 Q408.1094,955.9531 408.1094,956.5625 L408.1094,958.0156 Q408.1094,958.625 407.875,958.8906 Q407.6406,959.1563 407.2656,959.1563 Q406.9219,959.1563 406.7188,958.9531 Q406.5156,958.7656 406.4063,958.25 Q406.3594,957.8906 406.1719,957.7031 Q405.8438,957.3281 405.2344,957.1094 Q404.625,956.8906 404,956.8906 Q403.2344,956.8906 402.5938,957.2188 Q401.9688,957.5469 401.4688,958.2969 Q400.9844,959.0469 400.9844,960.0781 L400.9844,961.1719 Q400.9844,962.4063 401.875,963.2344 Q402.7656,964.0469 404.3594,964.0469 Q405.2969,964.0469 405.9531,963.7969 Q406.3438,963.6406 406.7656,963.2031 Q407.0313,962.9375 407.1719,962.8594 Q407.3281,962.7813 407.5313,962.7813 Q407.8594,962.7813 408.1094,963.0469 Q408.375,963.2969 408.375,963.6406 Q408.375,963.9844 408.0313,964.3906 Q407.5313,964.9688 406.7344,965.2969 Q405.6563,965.75 404.3594,965.75 Q402.8438,965.75 401.6406,965.125 Q400.6563,964.625 399.9688,963.5625 Q399.2813,962.4844 399.2813,961.2031 L399.2813,960.0469 Q399.2813,958.7188 399.8906,957.5781 Q400.5156,956.4219 401.6094,955.8125 Q402.7031,955.1875 403.9375,955.1875 Q404.6719,955.1875 405.3125,955.3594 Q405.9688,955.5156 406.5156,955.875 Z " fill="#000000"/><text fill="#000000" font-family="sans-serif" font-size="14" lengthAdjust="spacing" textLength="48" x="424.25" y="965.7285">Physics</text><line style="stroke:#181818;stroke-width:0.5;" x1="326.5" x2="537.5" y1="976" y2="976"/><ellipse cx="336.5" cy="990.3047" fill="none" rx="3" ry="3" style="stroke:#038048;stroke-width:1.0;"/><text fill="#000000" font-family="sans-serif" font-size="14" lengthAdjust="spacing" textLength="72" x="345.5" y="994.5332">mass : float</text><ellipse cx="336.5" cy="1007.9141" fill="none" rx="3" ry="3" style="stroke:#038048;stroke-width:1.0;"/><text fill="#000000" font-family="sans-serif" font-size="14" lengthAdjust="spacing" textLength="139" x="345.5" y="1012.1426">momentOfInertia: float</text><ellipse cx="336.5" cy="1025.5234" fill="none" rx="3" ry="3" style="stroke:#038048;stroke-width:1.0;"/><text fill="#000000" font-family="sans-serif" font-size="14" lengthAdjust="spacing" textLength="101" x="345.5" y="1029.752">restitution : float</text><ellipse cx="336.5" cy="1043.1328" fill="none" rx="3" ry="3" style="stroke:#038048;stroke-width:1.0;"/><text fill="#000000" font-family="sans-serif" font-size="14" lengthAdjust="spacing" textLength="91" x="345.5" y="1047.3613">velocity : Vec2</text><ellipse cx="336.5" cy="1060.7422" fill="none" rx="3" ry="3" style="stroke:#038048;stroke-width:1.0;"/><text fill="#000000" font-family="sans-serif" font-size="14" lengthAdjust="spacing" textLength="121" x="345.5" y="1064.9707">acceleration : Vec2</text><ellipse cx="336.5" cy="1078.3516" fill="none" rx="3" ry="3" style="stroke:#038048;stroke-width:1.0;"/><text fill="#000000" font-family="sans-serif" font-size="14" lengthAdjust="spacing" textLength="128" x="345.5" y="1082.5801">angularSpeed : float</text><ellipse cx="336.5" cy="1095.9609" fill="none" rx="3" ry="3" style="stroke:#038048;stroke-width:1.0;"/><text fill="#000000" font-family="sans-serif" font-size="14" lengthAdjust="spacing" textLength="110" x="345.5" y="1100.1895">angularAcc : float</text><ellipse cx="336.5" cy="1113.5703" fill="none" rx="3" ry="3" style="stroke:#038048;stroke-width:1.0;"/><text fill="#000000" font-family="sans-serif" font-size="14" lengthAdjust="spacing" textLength="151" x="345.5" y="1117.7988">constraintPosition : bool</text><ellipse cx="336.5" cy="1131.1797" fill="none" rx="3" ry="3" style="stroke:#038048;stroke-width:1.0;"/><text fill="#000000" font-family="sans-serif" font-size="14" lengthAdjust="spacing" textLength="154" x="345.5" y="1135.4082">constraintRotation : bool</text><line style="stroke:#181818;stroke-width:0.5;" x1="326.5" x2="537.5" y1="1142.4844" y2="1142.4844"/><ellipse cx="336.5" cy="1156.7891" fill="#84BE84" rx="3" ry="3" style="stroke:#038048;stroke-width:1.0;"/><text fill="#000000" font-family="sans-serif" font-size="14" lengthAdjust="spacing" textLength="187" x="345.5" y="1161.0176">Update(deltaTime, mode : int)</text><ellipse cx="336.5" cy="1174.3984" fill="#84BE84" rx="3" ry="3" style="stroke:#038048;stroke-width:1.0;"/><text fill="#000000" font-family="sans-serif" font-size="14" lengthAdjust="spacing" textLength="148" x="345.5" y="1178.627">AddForce(force : Vec2)</text><ellipse cx="336.5" cy="1192.0078" fill="#84BE84" rx="3" ry="3" style="stroke:#038048;stroke-width:1.0;"/><text fill="#000000" font-family="sans-serif" font-size="14" lengthAdjust="spacing" textLength="161" x="345.5" y="1196.2363">AddTorque(torque : float)</text></g><!--class Sprite--><g id="elem_Sprite"><rect codeLine="106" fill="#F1F1F1" height="83.2188" id="Sprite" rx="2.5" ry="2.5" style="stroke:#181818;stroke-width:0.5;" width="138" x="574" y="1032"/><ellipse cx="620.25" cy="1048" fill="#ADD1B2" rx="11" ry="11" style="stroke:#181818;stroke-width:1.0;"/><path d="M623.0156,1043.875 Q623.1719,1043.6563 623.3594,1043.5469 Q623.5469,1043.4375 623.7656,1043.4375 Q624.1406,1043.4375 624.375,1043.7031 Q624.6094,1043.9531 624.6094,1044.5625 L624.6094,1046.0156 Q624.6094,1046.625 624.375,1046.8906 Q624.1406,1047.1563 623.7656,1047.1563 Q623.4219,1047.1563 623.2188,1046.9531 Q623.0156,1046.7656 622.9063,1046.25 Q622.8594,1045.8906 622.6719,1045.7031 Q622.3438,1045.3281 621.7344,1045.1094 Q621.125,1044.8906 620.5,1044.8906 Q619.7344,1044.8906 619.0938,1045.2188 Q618.4688,1045.5469 617.9688,1046.2969 Q617.4844,1047.0469 617.4844,1048.0781 L617.4844,1049.1719 Q617.4844,1050.4063 618.375,1051.2344 Q619.2656,1052.0469 620.8594,1052.0469 Q621.7969,1052.0469 622.4531,1051.7969 Q622.8438,1051.6406 623.2656,1051.2031 Q623.5313,1050.9375 623.6719,1050.8594 Q623.8281,1050.7813 624.0313,1050.7813 Q624.3594,1050.7813 624.6094,1051.0469 Q624.875,1051.2969 624.875,1051.6406 Q624.875,1051.9844 624.5313,1052.3906 Q624.0313,1052.9688 623.2344,1053.2969 Q622.1563,1053.75 620.8594,1053.75 Q619.3438,1053.75 618.1406,1053.125 Q617.1563,1052.625 616.4688,1051.5625 Q615.7813,1050.4844 615.7813,1049.2031 L615.7813,1048.0469 Q615.7813,1046.7188 616.3906,1045.5781 Q617.0156,1044.4219 618.1094,1043.8125 Q619.2031,1043.1875 620.4375,1043.1875 Q621.1719,1043.1875 621.8125,1043.3594 Q622.4688,1043.5156 623.0156,1043.875 Z " fill="#000000"/><text fill="#000000" font-family="sans-serif" font-size="14" lengthAdjust="spacing" textLength="37" x="640.75" y="1053.7285">Sprite</text><line style="stroke:#181818;stroke-width:0.5;" x1="575" x2="711" y1="1064" y2="1064"/><text fill="#000000" font-family="sans-serif" font-size="14" lengthAdjust="spacing" textLength="83" x="580" y="1082.5332">b_proc : bool</text><text fill="#000000" font-family="sans-serif" font-size="14" lengthAdjust="spacing" textLength="126" x="580" y="1100.1426">s_spritePath : string</text><line style="stroke:#181818;stroke-width:0.5;" x1="575" x2="711" y1="1107.2188" y2="1107.2188"/></g><!--class Transform--><g id="elem_Transform"><rect codeLine="111" fill="#F1F1F1" height="171.2656" id="Transform" rx="2.5" ry="2.5" style="stroke:#181818;stroke-width:0.5;" width="185" x="747.5" y="988"/><ellipse cx="803.25" cy="1004" fill="#ADD1B2" rx="11" ry="11" style="stroke:#181818;stroke-width:1.0;"/><path d="M806.0156,999.875 Q806.1719,999.6563 806.3594,999.5469 Q806.5469,999.4375 806.7656,999.4375 Q807.1406,999.4375 807.375,999.7031 Q807.6094,999.9531 807.6094,1000.5625 L807.6094,1002.0156 Q807.6094,1002.625 807.375,1002.8906 Q807.1406,1003.1563 806.7656,1003.1563 Q806.4219,1003.1563 806.2188,1002.9531 Q806.0156,1002.7656 805.9063,1002.25 Q805.8594,1001.8906 805.6719,1001.7031 Q805.3438,1001.3281 804.7344,1001.1094 Q804.125,1000.8906 803.5,1000.8906 Q802.7344,1000.8906 802.0938,1001.2188 Q801.4688,1001.5469 800.9688,1002.2969 Q800.4844,1003.0469 800.4844,1004.0781 L800.4844,1005.1719 Q800.4844,1006.4063 801.375,1007.2344 Q802.2656,1008.0469 803.8594,1008.0469 Q804.7969,1008.0469 805.4531,1007.7969 Q805.8438,1007.6406 806.2656,1007.2031 Q806.5313,1006.9375 806.6719,1006.8594 Q806.8281,1006.7813 807.0313,1006.7813 Q807.3594,1006.7813 807.6094,1007.0469 Q807.875,1007.2969 807.875,1007.6406 Q807.875,1007.9844 807.5313,1008.3906 Q807.0313,1008.9688 806.2344,1009.2969 Q805.1563,1009.75 803.8594,1009.75 Q802.3438,1009.75 801.1406,1009.125 Q800.1563,1008.625 799.4688,1007.5625 Q798.7813,1006.4844 798.7813,1005.2031 L798.7813,1004.0469 Q798.7813,1002.7188 799.3906,1001.5781 Q800.0156,1000.4219 801.1094,999.8125 Q802.2031,999.1875 803.4375,999.1875 Q804.1719,999.1875 804.8125,999.3594 Q805.4688,999.5156 806.0156,999.875 Z " fill="#000000"/><text fill="#000000" font-family="sans-serif" font-size="14" lengthAdjust="spacing" textLength="65" x="823.75" y="1009.7285">Transform</text><line style="stroke:#181818;stroke-width:0.5;" x1="748.5" x2="931.5" y1="1020" y2="1020"/><ellipse cx="758.5" cy="1034.3047" fill="none" rx="3" ry="3" style="stroke:#038048;stroke-width:1.0;"/><text fill="#000000" font-family="sans-serif" font-size="14" lengthAdjust="spacing" textLength="93" x="767.5" y="1038.5332">position : Vec2</text><ellipse cx="758.5" cy="1051.9141" fill="none" rx="3" ry="3" style="stroke:#038048;stroke-width:1.0;"/><text fill="#000000" font-family="sans-serif" font-size="14" lengthAdjust="spacing" textLength="87" x="767.5" y="1056.1426">rotation : float</text><ellipse cx="758.5" cy="1069.5234" fill="none" rx="3" ry="3" style="stroke:#038048;stroke-width:1.0;"/><text fill="#000000" font-family="sans-serif" font-size="14" lengthAdjust="spacing" textLength="77" x="767.5" y="1073.752">scale : Vec2</text><ellipse cx="758.5" cy="1087.1328" fill="none" rx="3" ry="3" style="stroke:#038048;stroke-width:1.0;"/><text fill="#000000" font-family="sans-serif" font-size="14" lengthAdjust="spacing" textLength="91" x="767.5" y="1091.3613">forward : Vec2</text><ellipse cx="758.5" cy="1104.7422" fill="none" rx="3" ry="3" style="stroke:#038048;stroke-width:1.0;"/><text fill="#000000" font-family="sans-serif" font-size="14" lengthAdjust="spacing" textLength="60" x="767.5" y="1108.9707">up : Vec2</text><line style="stroke:#181818;stroke-width:0.5;" x1="748.5" x2="931.5" y1="1116.0469" y2="1116.0469"/><ellipse cx="758.5" cy="1130.3516" fill="#84BE84" rx="3" ry="3" style="stroke:#038048;stroke-width:1.0;"/><text fill="#000000" font-family="sans-serif" font-size="14" lengthAdjust="spacing" textLength="126" x="767.5" y="1134.5801">Rotate(angle : float)</text><ellipse cx="758.5" cy="1147.9609" fill="#84BE84" rx="3" ry="3" style="stroke:#038048;stroke-width:1.0;"/><text fill="#000000" font-family="sans-serif" font-size="14" lengthAdjust="spacing" textLength="159" x="767.5" y="1152.1895">LookAt(targetPos : Vec2)</text></g><!--reverse link World to Scene--><g id="link_World_Scene"><path codeLine="122" d="M537,190.26 C537,206.52 537,211.53 537,227.79 " fill="none" id="World-backto-Scene" style="stroke:#181818;stroke-width:1.0;"/><polygon fill="#181818" points="537,178.26,533,184.26,537,190.26,541,184.26,537,178.26" style="stroke:#181818;stroke-width:1.0;"/><polygon fill="#000000" points="542,199.1958,544.9389,190.1507,539.0611,190.1507,542,199.1958" style="stroke:#000000;stroke-width:1.0;"/><text fill="#000000" font-family="sans-serif" font-size="13" lengthAdjust="spacing" textLength="49" x="551" y="199.5151">contains</text><text fill="#000000" font-family="sans-serif" font-size="13" lengthAdjust="spacing" textLength="7" x="525.5273" y="199.8163">1</text><text fill="#000000" font-family="sans-serif" font-size="13" lengthAdjust="spacing" textLength="20" x="511.9688" y="217.2356">1..*</text></g><!--reverse link Scene to GameObject--><g id="link_Scene_GameObject"><path codeLine="123" d="M537,411.17 C537,429.77 537,437.78 537,457.46 " fill="none" id="Scene-backto-GameObject" style="stroke:#181818;stroke-width:1.0;"/><polygon fill="#181818" points="537,399.17,533,405.17,537,411.17,541,405.17,537,399.17" style="stroke:#181818;stroke-width:1.0;"/><polygon fill="#000000" points="542,424.4858,544.9389,415.4407,539.0611,415.4407,542,424.4858" style="stroke:#000000;stroke-width:1.0;"/><text fill="#000000" font-family="sans-serif" font-size="13" lengthAdjust="spacing" textLength="49" x="551" y="424.8051">contains</text><text fill="#000000" font-family="sans-serif" font-size="13" lengthAdjust="spacing" textLength="7" x="525.5273" y="420.7186">1</text><text fill="#000000" font-family="sans-serif" font-size="13" lengthAdjust="spacing" textLength="20" x="512.2313" y="446.7093">1..*</text></g><!--reverse link GameObject to Component--><g id="link_GameObject_Component"><path codeLine="124" d="M537,711.71 C537,731.68 537,739.73 537,757.79 " fill="none" id="GameObject-backto-Component" style="stroke:#181818;stroke-width:1.0;"/><polygon fill="none" points="537,699.71,533,705.71,537,711.71,541,705.71,537,699.71" style="stroke:#181818;stroke-width:1.0;"/></g><!--link Vector to GameObject--><!--reverse link Component to Collider--><g id="link_Component_Collider"><path codeLine="126" d="M424.37,826 C322.7,826 191,826 191,826 C191,826 191,941 191,1014.22 " fill="none" id="Component-backto-Collider" style="stroke:#181818;stroke-width:1.0;"/><polygon fill="#181818" points="430.37,826,421.37,822,425.37,826,421.37,830,430.37,826" style="stroke:#181818;stroke-width:1.0;"/><text fill="#000000" font-family="sans-serif" font-size="13" lengthAdjust="spacing" textLength="22" x="167.6594" y="1003.5101">0..1</text></g><!--reverse link Component to Physics--><g id="link_Component_Physics"><path codeLine="127" d="M484.5,900.29 C484.5,915.74 484.5,926.65 484.5,943.71 " fill="none" id="Component-backto-Physics" style="stroke:#181818;stroke-width:1.0;"/><polygon fill="#181818" points="484.5,894.29,480.5,903.29,484.5,899.29,488.5,903.29,484.5,894.29" style="stroke:#181818;stroke-width:1.0;"/><text fill="#000000" font-family="sans-serif" font-size="13" lengthAdjust="spacing" textLength="22" x="464.8992" y="933.2403">0..1</text></g><!--reverse link Component to Sprite--><g id="link_Component_Sprite"><path codeLine="128" d="M597.17,900.29 C597.17,944.36 597.17,994.26 597.17,1031.81 " fill="none" id="Component-backto-Sprite" style="stroke:#181818;stroke-width:1.0;"/><polygon fill="#181818" points="597.17,894.29,593.17,903.29,597.17,899.29,601.17,903.29,597.17,894.29" style="stroke:#181818;stroke-width:1.0;"/><text fill="#000000" font-family="sans-serif" font-size="13" lengthAdjust="spacing" textLength="22" x="565.7575" y="1021.0862">0..1</text></g><!--reverse link Component to Transform--><g id="link_Component_Transform"><path codeLine="129" d="M620.33,900.25 C620.33,952.62 620.33,1010 620.33,1010 C620.33,1010 687.44,1010 747.48,1010 " fill="none" id="Component-backto-Transform" style="stroke:#181818;stroke-width:1.0;"/><polygon fill="#181818" points="620.33,894.25,616.33,903.25,620.33,899.25,624.33,903.25,620.33,894.25" style="stroke:#181818;stroke-width:1.0;"/><text fill="#000000" font-family="sans-serif" font-size="13" lengthAdjust="spacing" textLength="7" x="732.5283" y="1001.5776">1</text></g><!--reverse link Collider to ColliderRect--><g id="link_Collider_ColliderRect"><path codeLine="131" d="M241.25,1138.84 C241.25,1173.38 241.25,1212.06 241.25,1252.98 " fill="none" id="Collider-backto-ColliderRect" style="stroke:#181818;stroke-width:1.0;"/><polygon fill="#181818" points="241.25,1132.84,237.25,1141.84,241.25,1137.84,245.25,1141.84,241.25,1132.84" style="stroke:#181818;stroke-width:1.0;"/></g><!--reverse link Collider to ColliderCircle--><g id="link_Collider_ColliderCircle"><path codeLine="132" d="M124.25,1138.84 C124.25,1181.04 124.25,1232.36 124.25,1279.49 " fill="none" id="Collider-backto-ColliderCircle" style="stroke:#181818;stroke-width:1.0;"/><polygon fill="#181818" points="124.25,1132.84,120.25,1141.84,124.25,1137.84,128.25,1141.84,124.25,1132.84" style="stroke:#181818;stroke-width:1.0;"/></g><!--SRC=[rLTHRzGu47xlhx3AIqgt5I3nWW1fQGL2ujfLK-1ETmYvzdJNLyVEsbxAKlM_Ct6osRXnd0BYWPNQH9blx9dl6tjiUoLKIGqjo0LbLtEZLueVQQaDkLu81pi4VxR5IA70hKiWshY5lcCqL5rPACdJHplUmYIrbdm0vhIvyL-gtysb0CbloLVoZ5nAJLtFikvR2i3fqBHFZhNBj5k0GH0E_MIlUSQmVz5vjfSQB5-EGcPWoYmroOas1PNY6zmFnPEmgPfBU0Nk6a3LQQQ3C_f_f1VuQGSzDFQPTjH1HgifKhXSLYcN3M92bksRsyGIkDzsnFweZUHzhG-8PQ30eXiNp4Nib3dn1V8AXI3_ZFB3kRTbVhmJMi2a7hgAw49h6KqS2jsClVLBEUJWfjjuxkdZg0cyzcAezoL73Rem3jBHSr70YnEDQVGOzQWOetCCwFIYah-YLGhh1WXxqmAphSyuNp_ivXaOpVrErb7a6t17kYYH3-Linl1rm_vGckZHSF5Hk4Nh7FUzxMvFspHZ90kEZaB5AfQr4VQgEeZhxR5VyS4WWJvXjFuDyUtNSQL-OO0kqm5PxTT1fLCYZ-XRWx3BIC71RC4J9BN-jYdfXFjiiRQ2sQvteJdKL2VyJfMVs0gjiirqFk7wTQzV8YqN_GhP9me9GtVhZ53pY1rROwt7jj1-1wK_arLjYYN5DcCbbjoniAMawrR5UyK-QGMEm1z450e2TteELPUxYQHn5bt1-sr5dLUdbeHEKZCgPzeALwSTTiSGvZjf3OkVO1fSZd-G0e7wEst-9s6sopFAnSec3pZL-au9b2zHHqSLWvd6TPF3lAYs0hiy_gzDRqAqUYTyOwxsaGcPJiYh2PbrcrL4aIDXc8G_JHCpmEalqdxRNu3D1XOZgAZimo4KkXBfzFAj0kC4JIG3rWct6k7b2o0pmgs76QQC0PuAQLe7F5ck93Lv2S0JqpMmAMC94DCAou9YINRq3xjO1DifWg6ErzkHnhe6TkZNsZ38Bgl_crl70F9Sc-KACkSVxMcvhtrU6hnSzQM_-5mQpOPIjP-jzvjHjmZNJJ3uELx4B4PRn4gh75rEPdmbsMOH3Oo0SrzJmuS1g_AUzvIGmZl0TrfVJLs6dHFR0fP9e0qouf_-Ha9s7vDTyl3W05yE3n_Y- -QcWRNZi78iUUdHzUSUUjkx-ouTcqQNyE3KCHx8VnU2Sr2VcYkn1xHmyhoQxz7XuUFTTWSTHZHxnp2WBh2O7OrjWUmqWEQyW7OUDDI4kTxTlmC0]--></g></svg>